<?xml version="1.0" encoding="UTF-8"?> <svg xmlns="http://www.w3.org/2000/svg" width="466" height="210" viewBox="0 0 466 210" fill="none"><path style="mix-blend-mode:darken" fill-rule="evenodd" clip-rule="evenodd" d="M45.544 4.899c3.436-1.337 7.274-1.45 10.823-.522 2.949.681 5.84 2.117 7.701 4.57 1.099 1.222 1.876 2.677 2.597 4.138.72 1.484 1.25 3.047 1.757 4.614.147.546.304 1.088.448 1.636.09.331.175.665.27 1 2.953 12.578 3.895 25.541 4.013 38.432.054 6.943-.11 13.88-.094 20.82.123.952.826 5.123 5.762 5.761 4.861.566 5.689-3.32 6.147-4.317 1.51-5.57 2.799-12.116 4.226-17.709 2.204-8.869 4.75-17.676 8.116-26.179.854-2.335 1.79-4.64 2.781-6.917 1.505-3.281 3.072-6.547 5.032-9.584.843-1.238 1.701-2.47 2.716-3.577 1.966-2.17 4.43-4.043 7.346-4.65.242-.056-.008-.007.94-.168 2.823-.526 5.737-.222 8.507.458a18.8 18.8 0 0 1 3.592 1.556c.333.2.649.42.967.644.417.238.821.507 1.212.788 4.542 3.725 7.2 9.296 8.342 14.973.936 4.55 1.077 9.248.547 13.859-.864 7.081-2.682 14.2-6.601 20.243-2.486 3.87-5.618 7.301-9.08 10.316-2.033 1.885-4.314 3.47-6.414 5.27-3.089 2.788-6.065 5.695-9.092 8.548-.472.466-.997.875-1.451 1.36-.34.335-.693.66-1.035.995-.464.482-.982.906-1.458 1.373-2.264 2.143-4.558 4.25-6.77 6.443-1.228 1.883-2.638 3.73-3.18 5.949-.35 1.725-.364 2.819-.555 4.57-.02 2.082.382 4.784.831 6.804.346 1.983 1.002 3.89 1.684 5.778.626 1.219 1.405 2.356 2.16 3.498 1.741 2.102 3.792 3.917 5.761 5.8 4.258 3.895 8.73 7.571 12.799 11.68 1.584 1.48 2.972 3.154 4.441 4.746 3.192 3.81 5.904 8.112 7.542 12.834.318.686.55 1.411.74 2.149.365 1.12.681 2.262.887 3.428l.215 1c1.036 5.179 1.44 10.505.873 15.767-.541 5.375-2.031 10.736-4.883 15.363a30.5 30.5 0 0 1-2.447 3.322q-.642.622-1.295 1.239c-.814.802-1.738 1.485-2.689 2.117a8.5 8.5 0 0 0-1.117.61c-4.195 2.141-9.295 2.427-13.71.817-3.081-1.241-5.46-3.747-7.127-6.565-1.623-2.541-2.83-5.32-3.889-8.132-1.387-3.644-2.52-7.379-3.606-11.122-.234-.879-.49-1.753-.736-2.632-2.26-8.381-3.793-16.937-5.065-25.526-.49-3.317-5.84-27.731-10.925-28.318-5.186-.67-15.402 17.856-16.213 19.791-1.832 4.546-3.69 9.098-5.683 13.576-.37.804-.748 1.602-1.086 2.423a208 208 0 0 1-9.679 18.528c-.821 1.365-1.698 2.695-2.538 4.048-.25.38-.493.766-.745 1.146-2.221 3.315-4.646 6.535-7.654 9.178-2.405 2.154-5.502 3.624-8.757 3.75-4.074-.05-8.248-1.228-11.408-3.889-3.28-2.65-5.268-6.563-6.369-10.571-1.337-5.216-1.32-10.703-.42-15.989.754-4.779 2.465-9.334 4.306-13.784.413-.929.89-1.829 1.347-2.735.856-1.427 1.683-2.871 2.675-4.221 1.934-2.742 4.303-5.148 6.815-7.363l.526-.464c.562-.449 1.12-.904 1.711-1.314 3.325-2.418 6.832-4.571 10.444-6.533 3.263-1.797 6.6-3.458 9.877-5.221q.889-.43 1.732-.944c.788-.467 9.03-6.819 9.82-7.281 1.47-.926-4.355 4.227-3.13 2.97.446-.493 1.004-.866 1.45-1.36.543-.556 1.145-1.049 1.68-1.61 1.44-1.409 5.284-5.687 6.242-11.007.49-3.578-1.852-10.398-2.551-11.609-4.759-7.881-8.97-13.997-13.45-21.004-1.84-2.67-6.706-8.925-7.055-9.554-.613-.897-1.167-1.835-1.721-2.766-.394-.686-.76-1.39-1.153-2.079l-.312-.66c-.446-.883-.836-1.794-1.229-2.7a39.9 39.9 0 0 1-3.024-16.233c-.216-6.95 1.097-13.973 3.957-20.32.742-1.552 1.509-3.099 2.507-4.504 2.1-3.278 4.919-6.164 8.343-8.054a19 19 0 0 1 2.19-.991" fill="url(#a)"></path><path d="M192.445 145.882q-4.645 0-9.82-1.478-5.174-1.479-10.136-4.435-4.964-2.957-9.081-7.497-4.013-4.645-6.441-10.77-2.323-6.23-2.323-14.149 0-7.603 2.323-13.516 2.429-6.019 6.441-10.453 4.013-4.435 8.975-7.286 4.964-2.956 10.242-4.33 5.28-1.477 10.031-1.477 5.385 0 9.398 1.267 4.012 1.267 6.547 2.64 2.534 1.266 3.167 1.795a26 26 0 0 1 3.59 2.64q1.69 1.478 1.795 3.906 0 1.268-.528 2.534-.422 1.163-1.372 2.534-1.69 2.43-3.274 3.59-1.478 1.056-3.062 1.056a5 5 0 0 1-2.428-.633q-1.056-.633-2.746-1.69-.738-.528-2.111-1.267-1.373-.845-3.696-1.478-2.323-.74-5.913-.739-3.696 0-7.497 1.373-3.696 1.267-6.863 3.906t-5.069 6.758q-1.9 4.013-1.9 9.398 0 5.596 1.9 9.608 2.007 4.013 5.174 6.653t6.864 4.012q3.801 1.267 7.391 1.267 3.168 0 5.385-.633 2.323-.635 3.907-1.479a62 62 0 0 0 2.851-1.689q1.16-.739 2.323-1.373 1.266-.633 2.534-.633 1.478 0 2.956 1.161 1.584 1.161 3.168 3.696.95 1.373 1.478 2.745.528 1.268.423 2.534 0 2.218-1.69 3.696a33 33 0 0 1-3.59 2.534q-.845.423-3.273 1.901-2.428 1.373-6.441 2.534-4.013 1.267-9.609 1.267m39.552-.845q-3.696 0-5.385-1.161-1.584-1.162-2.112-2.957a15 15 0 0 1-.528-4.012V79.149q0-2.006.422-3.801.423-1.9 2.112-3.062 1.69-1.163 5.597-1.056h19.006q7.602 0 14.149 2.745t11.509 7.708 7.708 11.615 2.746 14.466q0 7.919-2.746 14.783-2.745 6.757-7.708 11.826-4.962 4.963-11.615 7.813-6.546 2.851-14.36 2.851zm8.025-16.155h11.087q5.701 0 10.242-2.64 4.54-2.745 7.18-7.391 2.64-4.645 2.64-10.665 0-6.018-2.64-10.77t-7.18-7.391q-4.54-2.745-10.348-2.746h-10.981zm63.353 16.155q-3.8 0-5.491-1.056-1.689-1.161-2.112-3.062a24 24 0 0 1-.316-3.907V79.149q0-2.006.316-3.801.423-1.9 2.112-2.957 1.69-1.161 5.597-1.161 4.012 0 5.596 1.161 1.69 1.162 2.006 2.957.422 1.795.422 3.907v18.267l22.597-23.652q2.111-2.112 3.801-2.957 1.795-.845 3.59-.317 1.9.528 4.012 2.64 3.59 3.273 3.59 5.807.106 2.43-2.956 5.491l-24.286 23.652 24.497 23.441q3.273 3.274 3.062 5.913-.105 2.535-3.695 5.491-2.535 2.112-4.435 2.64-1.795.634-3.379-.317-1.584-.845-3.59-3.062l-22.808-23.758v18.584q0 2.006-.422 3.907-.317 1.794-2.006 2.956-1.69 1.056-5.702 1.056m63.431 0q-3.802 0-5.491-1.056-1.689-1.161-2.112-3.062a18 18 0 0 1-.422-3.907V79.255q0-2.112.317-3.907.422-1.795 2.111-2.957t5.597-1.161q4.012 0 5.596 1.161 1.69 1.162 2.006 2.957.423 1.795.422 3.907v51.844h28.932q1.795 0 3.379.317t2.534 1.795q1.056 1.479 1.056 4.857 0 3.274-1.056 4.857-1.056 1.479-2.64 1.795-1.478.317-3.273.317zm71.424 1.162q-4.54 0-8.131-.951-3.484-.95-6.018-2.217-2.429-1.373-4.013-2.429a402 402 0 0 1-2.006-1.583 16.8 16.8 0 0 1-2.534-2.429q-.95-1.267-.95-2.956 0-1.374.739-2.851.74-1.479 2.428-3.168 1.373-1.584 2.746-2.323 1.373-.845 2.745-.845 1.268 0 2.64.634 1.372.633 3.379 2.323l1.267.95q.95.634 2.534 1.161 1.689.528 4.435.528 2.957 0 4.962-1.055 2.112-1.056 3.274-2.957 1.161-2.006 1.161-4.752 0-2.533-1.267-4.54-1.161-2.006-3.168-3.062-2.005-1.161-4.54-1.161-1.477 0-2.64.316-1.161.317-2.006.845a9.4 9.4 0 0 0-1.161.95 16.6 16.6 0 0 1-2.112 1.584q-1.056.634-2.746.634-1.373.105-2.85-.211-1.479-.423-3.274-1.373-2.85-1.479-4.012-2.64t-1.162-2.745l4.118-30.727q.212-1.478.739-3.379.528-1.9 2.112-3.273 1.69-1.478 5.174-1.478l25.236.105q2.112 0 3.907.423 1.795.422 2.851 2.111 1.161 1.69 1.161 5.702 0 3.696-1.055 5.385-1.057 1.584-2.851 1.901a19.5 19.5 0 0 1-3.59.317h-18.584l-1.479 10.664q.634-.422 1.373-.633.74-.212 1.478-.317.74-.21 1.479-.211h.633q4.752 0 9.081 1.9a24.7 24.7 0 0 1 7.814 5.28 25.7 25.7 0 0 1 5.49 7.708q2.007 4.329 2.006 9.186 0 7.286-3.273 13.094t-8.975 9.186q-5.596 3.379-12.565 3.379" fill="#8493B7"></path><defs><radialGradient id="a" cx="0" cy="0" r="1" gradientUnits="userSpaceOnUse" gradientTransform="rotate(130.393 48.762 46.758)scale(170.736 92.1332)"><stop stop-color="#FFABBB"></stop><stop offset=".232" stop-color="#F0ACD5"></stop><stop offset=".573" stop-color="#A2C6FF"></stop><stop offset=".873" stop-color="#FDD7A2"></stop></radialGradient></defs></svg> 