<?xml version="1.0" encoding="UTF-8"?> <svg xmlns="http://www.w3.org/2000/svg" width="466" height="210" viewBox="0 0 466 210" fill="none"><path style="mix-blend-mode:darken" fill-rule="evenodd" clip-rule="evenodd" d="M45.5441 4.89949C48.9795 3.56232 52.8181 3.44913 56.3669 4.37706C59.3156 5.05845 62.2067 6.4941 64.0683 8.94752C65.1667 10.169 65.9438 11.624 66.6655 13.0859C67.3849 14.5696 67.9153 16.1326 68.4217 17.6995C68.5686 18.2452 68.7257 18.7871 68.8704 19.336C68.9594 19.667 69.045 20.0009 69.1406 20.3361C72.0933 32.9133 73.0351 45.8766 73.1534 58.7673C73.2067 65.71 73.0428 72.6468 73.0588 79.5868C73.1815 80.5397 73.8847 84.7107 78.8208 85.3488C83.6821 85.9148 84.5098 82.0285 84.9677 81.032C86.4784 75.4608 87.7667 68.9158 89.1944 63.323C91.3983 54.4536 93.9437 45.6466 97.3103 37.1435C98.1641 34.8084 99.0995 32.5037 100.091 30.2262C101.596 26.945 103.163 23.6797 105.123 20.6428C105.966 19.4049 106.824 18.1722 107.839 17.0658C109.805 14.8963 112.269 13.0223 115.185 12.4157C115.427 12.3599 115.177 12.4079 116.125 12.2471C118.948 11.7211 121.862 12.0254 124.632 12.7055C125.879 13.0986 127.084 13.6179 128.224 14.2619C128.557 14.4608 128.873 14.6813 129.191 14.9056C129.608 15.1435 130.012 15.4122 130.403 15.693C134.945 19.4185 137.603 24.9896 138.745 30.6663C139.681 35.2162 139.822 39.9149 139.292 44.5252C138.428 51.6069 136.61 58.726 132.691 64.768C130.205 68.6385 127.073 72.0698 123.611 75.0845C121.578 76.97 119.297 78.5543 117.197 80.3549C114.108 83.1428 111.132 86.0494 108.105 88.9025C107.633 89.3682 107.108 89.7777 106.654 90.2625C106.314 90.5977 105.961 90.9224 105.619 91.2574C105.155 91.7392 104.637 92.1633 104.161 92.6303C101.897 94.7738 99.6027 96.8811 97.3917 99.0736C96.1634 100.957 94.7527 102.803 94.2107 105.023C93.8602 106.748 93.8465 107.842 93.6561 109.593C93.6352 111.675 94.0376 114.377 94.4873 116.396C94.8326 118.38 95.4887 120.287 96.1706 122.175C96.7973 123.393 97.5757 124.53 98.3312 125.673C100.072 127.774 102.123 129.59 104.092 131.472C108.35 135.367 112.822 139.044 116.891 143.153C118.475 144.633 119.863 146.306 121.332 147.898C124.524 151.708 127.236 156.011 128.874 160.732C129.192 161.418 129.424 162.143 129.614 162.881C129.979 164.002 130.295 165.144 130.501 166.31L130.716 167.31C131.752 172.489 132.156 177.815 131.589 183.077C131.048 188.452 129.558 193.812 126.706 198.439C125.966 199.601 125.149 200.71 124.259 201.761C123.831 202.176 123.399 202.589 122.964 203.001C122.15 203.803 121.226 204.486 120.275 205.118C119.888 205.293 119.514 205.497 119.158 205.728C114.964 207.869 109.863 208.154 105.448 206.544C102.367 205.303 99.9884 202.798 98.3206 199.979C96.6977 197.439 95.4905 194.66 94.432 191.847C93.0452 188.203 91.9113 184.469 90.826 180.725C90.592 179.847 90.3354 178.973 90.0896 178.093C87.8298 169.713 86.2968 161.157 85.0248 152.567C84.5351 149.25 79.1853 124.836 74.1 124.25C68.9139 123.579 58.6977 142.106 57.8871 144.041C56.0546 148.587 54.1979 153.138 52.2036 157.617C51.8336 158.42 51.4556 159.219 51.1176 160.04C48.2043 166.374 44.9739 172.557 41.4392 178.567C40.6179 179.932 39.7412 181.263 38.9009 182.615C38.6505 182.995 38.4078 183.381 38.1556 183.761C35.9345 187.076 33.5103 190.297 30.5023 192.94C28.097 195.093 24.9996 196.564 21.7452 196.689C17.6709 196.64 13.4968 195.462 10.3372 192.8C7.05697 190.15 5.06927 186.238 3.96847 182.23C2.63117 177.013 2.64814 171.527 3.54847 166.241C4.30214 161.462 6.01299 156.906 7.85404 152.457C8.26653 151.527 8.74351 150.628 9.20092 149.721C10.057 148.294 10.8845 146.85 11.8759 145.501C13.8095 142.758 16.1792 140.352 18.6907 138.138L19.217 137.674C19.779 137.225 20.3366 136.77 20.928 136.359C24.2527 133.941 27.7599 131.788 31.3715 129.827C34.6345 128.029 37.9729 126.369 41.2489 124.605C41.8414 124.319 42.4195 124.004 42.9813 123.661C43.7685 123.195 52.0103 116.843 52.8005 116.38C54.2717 115.455 48.4455 120.608 49.671 119.35C50.1173 118.858 50.6752 118.484 51.1201 117.99C51.6643 117.435 52.2657 116.942 52.8005 116.38C54.2419 114.971 58.0853 110.693 59.0426 105.373C59.5327 101.796 57.1915 94.9752 56.4917 93.7649C51.733 85.8831 47.5212 79.7676 43.0411 72.7609C41.2024 70.0907 36.3365 63.8359 35.9872 63.2062C35.3739 62.3091 34.8201 61.3718 34.2655 60.441C33.8719 59.7549 33.5061 59.0512 33.1129 58.3615L32.8012 57.7022C32.355 56.8187 31.9648 55.9079 31.5724 55.0017C29.4431 49.8607 28.4128 44.3311 28.5476 38.7681C28.3318 31.8176 29.6454 24.7955 32.5053 18.4482C33.2471 16.8965 34.0138 15.3496 35.0119 13.9448C37.1128 10.6661 39.9305 7.78089 43.3547 5.8906C44.0624 5.51337 44.7937 5.18231 45.5441 4.89949Z" fill="url(#paint0_radial_2039_749)"></path><path d="M192.445 145.883C189.348 145.883 186.075 145.39 182.625 144.405C179.176 143.419 175.797 141.941 172.489 139.97C169.18 137.999 166.153 135.5 163.408 132.473C160.733 129.376 158.586 125.786 156.967 121.703C155.418 117.55 154.644 112.833 154.644 107.554C154.644 102.485 155.418 97.9803 156.967 94.0382C158.586 90.0258 160.733 86.5413 163.408 83.5848C166.083 80.6283 169.075 78.1997 172.383 76.2991C175.692 74.3281 179.106 72.885 182.625 71.9699C186.145 70.9844 189.489 70.4917 192.656 70.4917C196.246 70.4917 199.379 70.914 202.054 71.7587C204.729 72.6035 206.911 73.4834 208.601 74.3985C210.29 75.2432 211.346 75.8416 211.768 76.1935C213.035 76.9679 214.232 77.8478 215.358 78.8333C216.485 79.8188 217.083 81.1211 217.153 82.7401C217.153 83.5848 216.977 84.4295 216.625 85.2743C216.344 86.0486 215.886 86.8933 215.253 87.8084C214.126 89.4275 213.035 90.6242 211.979 91.3985C210.994 92.1024 209.973 92.4544 208.917 92.4544C208.073 92.4544 207.263 92.2432 206.489 91.8208C205.785 91.3985 204.87 90.8353 203.743 90.1314C203.251 89.7794 202.547 89.3571 201.632 88.8643C200.716 88.3012 199.485 87.8084 197.936 87.3861C196.387 86.8933 194.416 86.6469 192.023 86.6469C189.559 86.6469 187.06 87.1045 184.526 88.0196C182.062 88.8643 179.774 90.1666 177.663 91.9264C175.551 93.6863 173.861 95.9389 172.594 98.6842C171.327 101.359 170.694 104.492 170.694 108.082C170.694 111.813 171.327 115.015 172.594 117.69C173.932 120.365 175.656 122.583 177.768 124.343C179.88 126.102 182.168 127.44 184.632 128.355C187.166 129.2 189.63 129.622 192.023 129.622C194.135 129.622 195.93 129.411 197.408 128.989C198.957 128.566 200.259 128.073 201.315 127.51C202.441 126.877 203.391 126.314 204.166 125.821C204.94 125.328 205.714 124.871 206.489 124.448C207.333 124.026 208.178 123.815 209.023 123.815C210.008 123.815 210.994 124.202 211.979 124.976C213.035 125.75 214.091 126.982 215.147 128.672C215.781 129.587 216.273 130.502 216.625 131.417C216.977 132.262 217.118 133.107 217.048 133.951C217.048 135.43 216.485 136.661 215.358 137.647C214.232 138.562 213.035 139.407 211.768 140.181C211.205 140.463 210.114 141.096 208.495 142.082C206.876 142.997 204.729 143.842 202.054 144.616C199.379 145.461 196.176 145.883 192.445 145.883ZM231.997 145.038C229.533 145.038 227.738 144.651 226.612 143.877C225.556 143.102 224.852 142.117 224.5 140.92C224.148 139.653 223.972 138.316 223.972 136.908V79.15C223.972 77.8126 224.113 76.5455 224.394 75.3488C224.676 74.0817 225.38 73.061 226.506 72.2867C227.633 71.5124 229.498 71.1604 232.103 71.2308H251.109C256.177 71.2308 260.893 72.1459 265.258 73.9761C269.622 75.8064 273.459 78.3757 276.767 81.6842C280.076 84.9927 282.645 88.8643 284.475 93.2991C286.305 97.7339 287.221 102.556 287.221 107.765C287.221 113.044 286.305 117.972 284.475 122.548C282.645 127.053 280.076 130.995 276.767 134.374C273.459 137.682 269.587 140.287 265.152 142.187C260.788 144.088 256.001 145.038 250.792 145.038H231.997ZM240.022 128.883H251.109C254.91 128.883 258.324 128.003 261.351 126.243C264.378 124.413 266.771 121.949 268.531 118.852C270.291 115.755 271.171 112.2 271.171 108.187C271.171 104.175 270.291 100.585 268.531 97.4171C266.771 94.2494 264.378 91.7856 261.351 90.0258C258.324 88.1956 254.875 87.2805 251.003 87.2805H240.022V128.883ZM303.375 145.038C300.841 145.038 299.011 144.686 297.884 143.982C296.758 143.208 296.054 142.187 295.772 140.92C295.561 139.653 295.456 138.351 295.456 137.013V79.15C295.456 77.8126 295.561 76.5455 295.772 75.3488C296.054 74.0817 296.758 73.0962 297.884 72.3923C299.011 71.618 300.876 71.2308 303.481 71.2308C306.155 71.2308 308.021 71.618 309.077 72.3923C310.203 73.1666 310.872 74.1521 311.083 75.3488C311.365 76.5455 311.505 77.8478 311.505 79.2556V97.5227L334.102 73.8705C335.509 72.4627 336.777 71.4772 337.903 70.914C339.1 70.3509 340.296 70.2453 341.493 70.5973C342.76 70.9492 344.097 71.8291 345.505 73.237C347.899 75.4192 349.095 77.355 349.095 79.0445C349.166 80.6635 348.18 82.4937 346.139 84.5351L321.853 108.187L346.35 131.628C348.532 133.81 349.553 135.781 349.412 137.541C349.342 139.231 348.11 141.061 345.717 143.032C344.027 144.44 342.549 145.32 341.282 145.672C340.085 146.094 338.959 145.989 337.903 145.355C336.847 144.792 335.65 143.771 334.313 142.293L311.505 118.535V137.119C311.505 138.456 311.365 139.759 311.083 141.026C310.872 142.222 310.203 143.208 309.077 143.982C307.951 144.686 306.05 145.038 303.375 145.038ZM366.806 145.038C364.271 145.038 362.441 144.686 361.315 143.982C360.189 143.208 359.485 142.187 359.203 140.92C358.922 139.653 358.781 138.351 358.781 137.013V79.2556C358.781 77.8478 358.886 76.5455 359.098 75.3488C359.379 74.1521 360.083 73.1666 361.209 72.3923C362.336 71.618 364.201 71.2308 366.806 71.2308C369.481 71.2308 371.346 71.618 372.402 72.3923C373.528 73.1666 374.197 74.1521 374.408 75.3488C374.69 76.5455 374.83 77.8478 374.83 79.2556V131.1H403.762C404.959 131.1 406.085 131.206 407.141 131.417C408.197 131.628 409.042 132.227 409.675 133.212C410.379 134.198 410.731 135.817 410.731 138.069C410.731 140.251 410.379 141.871 409.675 142.926C408.971 143.912 408.091 144.51 407.035 144.721C406.05 144.933 404.959 145.038 403.762 145.038H366.806ZM438.23 146.2C435.203 146.2 432.493 145.883 430.099 145.249C427.776 144.616 425.77 143.877 424.081 143.032C422.462 142.117 421.124 141.307 420.068 140.603C419.083 139.829 418.414 139.301 418.062 139.02C417.077 138.245 416.232 137.436 415.528 136.591C414.894 135.746 414.578 134.761 414.578 133.634C414.578 132.719 414.824 131.769 415.317 130.784C415.81 129.798 416.619 128.742 417.745 127.616C418.66 126.56 419.576 125.786 420.491 125.293C421.406 124.73 422.321 124.448 423.236 124.448C424.081 124.448 424.961 124.659 425.876 125.082C426.791 125.504 427.917 126.278 429.255 127.405C429.536 127.616 429.959 127.933 430.522 128.355C431.155 128.777 432 129.165 433.056 129.516C434.182 129.868 435.66 130.044 437.491 130.044C439.462 130.044 441.116 129.692 442.453 128.989C443.861 128.285 444.952 127.299 445.727 126.032C446.501 124.695 446.888 123.111 446.888 121.28C446.888 119.591 446.466 118.078 445.621 116.74C444.847 115.403 443.791 114.382 442.453 113.678C441.116 112.904 439.603 112.516 437.913 112.516C436.928 112.516 436.048 112.622 435.273 112.833C434.499 113.044 433.83 113.326 433.267 113.678C432.774 114.03 432.387 114.347 432.106 114.628C431.472 115.191 430.768 115.719 429.994 116.212C429.29 116.634 428.375 116.846 427.248 116.846C426.333 116.916 425.383 116.846 424.398 116.634C423.412 116.353 422.321 115.895 421.124 115.262C419.224 114.276 417.886 113.396 417.112 112.622C416.338 111.848 415.95 110.933 415.95 109.877L420.068 79.15C420.209 78.1645 420.456 77.0382 420.807 75.7712C421.159 74.5041 421.863 73.413 422.919 72.4979C424.046 71.5124 425.77 71.0196 428.093 71.0196L453.329 71.1252C454.737 71.1252 456.039 71.266 457.236 71.5476C458.433 71.8291 459.383 72.5331 460.087 73.6594C460.861 74.7857 461.248 76.6863 461.248 79.3612C461.248 81.825 460.896 83.62 460.193 84.7463C459.489 85.8022 458.538 86.4358 457.342 86.6469C456.215 86.8581 455.019 86.9637 453.752 86.9637H435.168L433.689 97.6283C434.112 97.3467 434.569 97.1355 435.062 96.9948C435.555 96.854 436.048 96.7484 436.54 96.678C437.033 96.5372 437.526 96.4668 438.019 96.4668H438.652C441.82 96.4668 444.847 97.1003 447.733 98.3674C450.689 99.6345 453.294 101.394 455.547 103.647C457.87 105.9 459.7 108.469 461.037 111.355C462.375 114.241 463.043 117.303 463.043 120.541C463.043 125.398 461.952 129.763 459.77 133.634C457.588 137.506 454.596 140.568 450.795 142.821C447.064 145.073 442.876 146.2 438.23 146.2Z" fill="white"></path><defs><radialGradient id="paint0_radial_2039_749" cx="0" cy="0" r="1" gradientUnits="userSpaceOnUse" gradientTransform="translate(115.972 39.9212) rotate(130.393) scale(170.736 92.1332)"><stop stop-color="#FFABBB"></stop><stop offset="0.231988" stop-color="#F0ACD5"></stop><stop offset="0.573223" stop-color="#A2C6FF"></stop><stop offset="0.873432" stop-color="#FDD7A2"></stop></radialGradient></defs></svg> 