<?xml version="1.0" encoding="UTF-8"?> <svg xmlns="http://www.w3.org/2000/svg" width="240" height="240" viewBox="0 0 240 240" fill="none"><mask id="mask0_2067_784" style="mask-type:luminance" maskUnits="userSpaceOnUse" x="0" y="0" width="240" height="240"><path d="M240 0H0V240H240V0Z" fill="white"></path></mask><g mask="url(#mask0_2067_784)"><mask id="mask1_2067_784" style="mask-type:luminance" maskUnits="userSpaceOnUse" x="0" y="0" width="240" height="240"><path d="M240 0H0V240H240V0Z" fill="white"></path></mask><g mask="url(#mask1_2067_784)"><mask id="mask2_2067_784" style="mask-type:alpha" maskUnits="userSpaceOnUse" x="24" y="37" width="157" height="117"><path fill-rule="evenodd" clip-rule="evenodd" d="M158.984 39.4274C159.749 38.8553 160.531 38.2696 161.626 37.8316C164.975 36.8269 167.58 37.3947 169.18 39.2606C169.496 39.6299 169.724 40.0174 169.937 40.3812C170.311 41.019 170.643 41.584 171.337 41.8503C172.42 42.2656 173.354 42.446 174.256 42.62C175.514 42.8629 176.709 43.0935 178.156 43.9333C182.405 46.4007 181.452 50.5003 177.022 50.4503C174.841 50.4256 172.661 50.4268 170.481 50.428C166.977 50.4299 163.475 50.4318 159.971 50.3263C159.555 50.3138 159.028 50.3255 158.442 50.3386C156.421 50.3836 153.699 50.4444 152.356 49.5768C148.972 47.39 150.198 42.8766 153.589 41.4638C154.169 41.2222 154.799 41.1141 155.428 41.0066C156.242 40.867 157.052 40.7283 157.743 40.3004C158.181 40.0292 158.58 39.7301 158.984 39.4274ZM112.423 60.7911C103.02 61.4628 91.051 67.1481 87.2635 82.238C86.0231 87.1814 85.5835 104.477 85.5854 107.823C85.5854 107.896 86.6951 107.981 87.3204 107.992C87.8651 108.001 88.7316 108.004 89.6935 108.008C92.1261 108.017 95.1681 108.028 95.1547 108.143C95.0702 108.881 95.1649 118.066 95.2526 122.971C95.2532 123.009 95.2359 123.121 95.2142 123.265C95.1508 123.675 95.0471 124.353 95.1905 124.361C96.6734 124.449 100.708 124.431 104.495 124.415C107.748 124.401 110.819 124.388 111.933 124.443L111.955 124.444C112.063 124.449 112.172 124.453 112.178 124.689C112.238 127.019 112.595 140.794 112.419 142.138C112.414 142.176 115.515 142.197 119.083 142.221H119.086C123.187 142.249 127.903 142.282 129.225 142.349C129.232 142.349 129.238 142.349 129.246 142.349C129.258 142.349 129.269 142.349 129.281 142.348C129.377 142.344 129.462 142.34 129.471 142.595C129.485 143.083 129.493 144.364 129.503 145.896V145.897C129.526 149.267 129.557 153.851 129.672 153.883C129.931 153.958 131.31 153.676 132.639 153.405C133.683 153.192 134.697 152.985 135.112 152.962C135.333 152.95 135.537 152.936 135.733 152.922C136.192 152.89 136.614 152.861 137.133 152.861C137.707 152.861 138.99 152.856 139.037 152.283C139.333 148.662 139.328 145.435 139.323 142.017C139.322 141.586 139.322 141.152 139.322 140.714C139.322 137.229 139.352 133.754 139.382 130.259C139.414 126.718 139.445 123.156 139.445 119.538C139.445 114.003 139.373 108.588 139.302 103.181C139.23 97.7885 139.159 92.4025 139.159 86.9145C139.159 86.5203 137.505 86.3404 136.06 86.183C135.318 86.1024 134.632 86.0275 134.254 85.9334C129.053 84.6329 126.554 79.8163 130.8 75.456C132.387 73.8272 135.216 73.8233 136.072 73.8227C136.178 73.822 136.254 73.822 136.293 73.8195C136.655 73.792 132.738 69.3331 130.697 67.2915C126.287 62.8821 119.008 60.7911 112.423 60.7911ZM45.2209 106.184C42.0559 106.658 40.5822 108.698 39.0901 110.763C38.1242 112.1 37.1506 113.448 35.7054 114.389C34.4331 115.218 32.8482 115.364 31.2572 115.512C29.4886 115.676 27.7123 115.841 26.3495 116.943C21.7923 120.631 25.5115 124.781 31.5548 124.974C38.6124 125.2 46.1242 125.107 53.6357 125.013C56.7583 124.975 59.881 124.936 62.9708 124.92C70.1979 124.883 69.2513 117.331 65.5092 113.853C63.3098 111.811 59.0094 110.756 56.296 110.316C54.5755 110.038 53.1507 109.135 51.7331 108.235C49.7948 107.007 47.87 105.787 45.2209 106.184Z" fill="#D9D9D9"></path></mask><g mask="url(#mask2_2067_784)"><path fill-rule="evenodd" clip-rule="evenodd" d="M158.984 39.4274C159.749 38.8553 160.531 38.2696 161.626 37.8316C164.975 36.8269 167.58 37.3947 169.18 39.2606C169.496 39.6299 169.724 40.0174 169.937 40.3812C170.311 41.019 170.643 41.584 171.337 41.8503C172.42 42.2656 173.354 42.446 174.256 42.62C175.514 42.8629 176.709 43.0935 178.156 43.9333C182.405 46.4007 181.452 50.5003 177.022 50.4503C174.841 50.4256 172.661 50.4268 170.481 50.428C166.977 50.4299 163.475 50.4318 159.971 50.3263C159.555 50.3138 159.028 50.3255 158.442 50.3386C156.421 50.3836 153.699 50.4444 152.356 49.5768C148.972 47.39 150.198 42.8766 153.589 41.4638C154.169 41.2222 154.799 41.1141 155.428 41.0066C156.242 40.867 157.052 40.7283 157.743 40.3004C158.181 40.0292 158.58 39.7301 158.984 39.4274ZM112.423 60.7911C103.02 61.4628 91.051 67.1481 87.2635 82.238C86.0231 87.1814 85.5835 104.477 85.5854 107.823C85.5854 107.896 86.6951 107.981 87.3204 107.992C87.8651 108.001 88.7316 108.004 89.6935 108.008C92.1261 108.017 95.1681 108.028 95.1547 108.143C95.0702 108.881 95.1649 118.066 95.2526 122.971C95.2532 123.009 95.2359 123.121 95.2142 123.265C95.1508 123.675 95.0471 124.353 95.1905 124.361C96.6734 124.449 100.708 124.431 104.495 124.415C107.748 124.401 110.819 124.388 111.933 124.443L111.955 124.444C112.063 124.449 112.172 124.453 112.178 124.689C112.238 127.019 112.595 140.794 112.419 142.138C112.414 142.176 115.515 142.197 119.083 142.221H119.086C123.187 142.249 127.903 142.282 129.225 142.349C129.232 142.349 129.238 142.349 129.246 142.349C129.258 142.349 129.269 142.349 129.281 142.348C129.377 142.344 129.462 142.34 129.471 142.595C129.485 143.083 129.493 144.364 129.503 145.896V145.897C129.526 149.267 129.557 153.851 129.672 153.883C129.931 153.958 131.31 153.676 132.639 153.405C133.683 153.192 134.697 152.985 135.112 152.962C135.333 152.95 135.537 152.936 135.733 152.922C136.192 152.89 136.614 152.861 137.133 152.861C137.707 152.861 138.99 152.856 139.037 152.283C139.333 148.662 139.328 145.435 139.323 142.017C139.322 141.586 139.322 141.152 139.322 140.714C139.322 137.229 139.352 133.754 139.382 130.259C139.414 126.718 139.445 123.156 139.445 119.538C139.445 114.003 139.373 108.588 139.302 103.181C139.23 97.7885 139.159 92.4025 139.159 86.9145C139.159 86.5203 137.505 86.3404 136.06 86.183C135.318 86.1024 134.632 86.0275 134.254 85.9334C129.053 84.6329 126.554 79.8163 130.8 75.456C132.387 73.8272 135.216 73.8233 136.072 73.8227C136.178 73.822 136.254 73.822 136.293 73.8195C136.655 73.792 132.738 69.3331 130.697 67.2915C126.287 62.8821 119.008 60.7911 112.423 60.7911ZM45.2209 106.184C42.0559 106.658 40.5822 108.698 39.0901 110.763C38.1242 112.1 37.1506 113.448 35.7054 114.389C34.4331 115.218 32.8482 115.364 31.2572 115.512C29.4886 115.676 27.7123 115.841 26.3495 116.943C21.7923 120.631 25.5115 124.781 31.5548 124.974C38.6124 125.2 46.1242 125.107 53.6357 125.013C56.7583 124.975 59.881 124.936 62.9708 124.92C70.1979 124.883 69.2513 117.331 65.5092 113.853C63.3098 111.811 59.0094 110.756 56.296 110.316C54.5755 110.038 53.1507 109.135 51.7331 108.235C49.7948 107.007 47.87 105.787 45.2209 106.184Z" fill="url(#paint0_radial_2067_784)"></path><g filter="url(#filter0_f_2067_784)"><path d="M103.673 155.292C115.22 184.41 134.228 204.306 146.127 199.732C158.027 195.158 158.313 167.845 146.765 138.728C135.218 109.61 116.211 89.7139 104.311 94.2881C92.4111 98.8623 92.1255 126.175 103.673 155.292Z" fill="white"></path></g><g filter="url(#filter1_f_2067_784)"><path d="M177.351 74.2464C188.898 103.364 207.906 123.26 219.805 118.686C231.705 114.112 231.991 86.7994 220.443 57.6819C208.896 28.5644 189.889 8.66802 177.989 13.2422C166.089 17.8164 165.803 45.1289 177.351 74.2464Z" fill="#615DE7"></path></g><g filter="url(#filter2_f_2067_784)"><path d="M98.5716 69.9213C120.619 92.4143 148.93 100.731 161.807 88.4969C174.684 76.2629 167.25 48.1112 145.203 25.6182C123.156 3.12523 94.8445 -5.19134 81.9676 7.04261C69.0907 19.2766 76.5245 47.4283 98.5716 69.9213Z" fill="#C9E8FF"></path></g><g filter="url(#filter3_f_2067_784)"><path d="M154.914 97.5391C184.575 86.3882 205.471 69.2323 201.588 59.2206C197.705 49.2088 170.512 50.1322 140.852 61.2831C111.191 72.4341 90.2941 89.5899 94.1773 99.6017C98.0606 109.614 125.253 108.69 154.914 97.5391Z" fill="url(#paint1_radial_2067_784)"></path></g><g filter="url(#filter4_f_2067_784)"><path d="M90.6629 110.443C87.0408 137.627 90.4406 160.452 98.2564 161.424C106.072 162.396 115.344 141.147 118.966 113.963C122.588 86.7796 119.189 63.9544 111.373 62.9823C103.557 62.0102 94.2849 83.2592 90.6629 110.443Z" fill="#FFCCD6"></path></g></g><path d="M108.915 90.1514C107.587 90.2909 105.672 91.423 104.526 93.2304C103.96 94.4426 101.553 93.4307 100.375 93.9363C97.3755 95.2234 96.2727 98.6442 99.3006 100.557C100.851 101.535 104.426 101.119 106.076 101.152C111.128 101.251 116.177 101.099 121.23 101.103C125.168 101.106 125.976 97.4538 122.177 95.3002C119.957 94.0426 119.277 94.5187 116.963 93.6592C115.989 93.2976 115.244 92.4624 114.41 91.8685C112.63 90.6019 111.102 89.9222 108.915 90.1514Z" fill="#FAF7F0"></path><path d="M92.5945 37.2457C92.5107 37.3294 92.4896 37.6852 92.5312 38.3132C92.5728 38.9411 92.5523 39.4016 92.4685 39.6946C92.3846 39.9877 92.3846 40.4481 92.4685 41.0761C92.5523 41.704 92.5523 42.1226 92.4685 42.332C92.3846 42.5412 92.3642 43.3367 92.4058 44.7181C92.448 46.0996 92.4269 47.2299 92.3424 48.109C92.2598 48.9881 92.3424 49.4904 92.5945 49.616C92.72 49.6788 92.8448 49.7416 92.9709 49.8044C93.0547 49.5742 93.1385 49.3439 93.2217 49.1137C93.3894 48.6531 93.5149 46.7066 93.5993 43.2739C93.6819 39.8412 93.6614 37.9573 93.536 37.6224C93.4105 37.2875 93.2429 37.1201 93.0336 37.1201C92.8243 37.1201 92.6777 37.162 92.5945 37.2457ZM110.49 46.8532C109.193 48.4857 108.46 49.3439 108.292 49.4276C108.125 49.5114 107.644 50.1184 106.849 51.2486C106.052 52.379 105.613 52.9441 105.53 52.9441C105.446 52.9441 105.341 53.1115 105.215 53.4464C105.09 53.7813 105.048 54.0325 105.09 54.2C105.132 54.3674 105.279 54.4511 105.53 54.4511C105.656 54.4511 105.78 54.4511 105.906 54.4511C105.906 54.3884 105.906 54.3255 105.906 54.2627C105.906 54.2 105.906 54.1372 105.906 54.0744C105.948 54.0744 105.99 54.0744 106.032 54.0744C106.116 54.0744 106.304 53.8441 106.597 53.3836C106.89 52.9231 107.141 52.6302 107.351 52.5045C107.56 52.379 107.79 52.0859 108.042 51.6254C108.292 51.1649 108.585 50.7882 108.92 50.4951C109.255 50.2021 109.507 49.8672 109.674 49.4904C109.842 49.1137 110.009 48.8834 110.177 48.7997C110.344 48.716 110.595 48.4648 110.929 48.0462C111.265 47.6275 111.432 47.3555 111.432 47.2299C111.432 47.1671 111.432 47.1043 111.432 47.0415C111.474 47.0624 111.516 47.0834 111.558 47.1043C111.599 47.1252 111.642 47.1461 111.684 47.1671C111.704 47.0834 111.725 46.9996 111.746 46.9159C111.788 46.7484 112.04 46.4345 112.5 45.974C112.961 45.5136 113.191 45.1367 113.191 44.8437C113.191 44.6972 113.191 44.5506 113.191 44.4041C113.065 44.4041 112.939 44.4041 112.813 44.4041C112.563 44.4041 111.788 45.2204 110.49 46.8532ZM69.9257 47.795C69.7997 47.8788 69.7997 48.1299 69.9257 48.5485C70.0512 48.9671 70.4064 49.4486 70.9933 49.9927C71.5795 50.5371 71.9136 50.9138 71.9981 51.1231C72.0819 51.3324 72.4582 51.751 73.1283 52.379C73.7977 53.0069 74.2797 53.5301 74.5721 53.9488C74.8653 54.3674 75.1168 54.6395 75.3254 54.7651C75.5353 54.8907 75.7235 55.1 75.8912 55.3931C76.0582 55.686 76.4141 56.0837 76.9587 56.5861C77.5027 57.0885 77.8797 57.3605 78.0883 57.4025C78.1939 57.4234 78.2982 57.4443 78.4025 57.4652C78.4237 57.3188 78.4441 57.1722 78.4659 57.0256C78.5075 56.7326 77.9418 56 76.7699 54.8279C75.5981 53.6558 74.928 52.9022 74.7603 52.5673C74.5939 52.2324 74.3213 51.9184 73.9443 51.6254C73.5673 51.3324 73.3587 51.1021 73.3165 50.9347C73.2749 50.7673 72.8768 50.3276 72.1235 49.616C71.3696 48.9044 70.9305 48.4229 70.8045 48.1717C70.679 47.9206 70.5325 47.7741 70.3654 47.7322C70.1977 47.6904 70.0512 47.7113 69.9257 47.795ZM90.647 55.2674C90.5222 55.3931 90.2707 55.4558 89.8937 55.4558C89.5174 55.4558 88.7219 55.686 87.5078 56.1466C86.2938 56.607 85.6448 56.9001 85.5616 57.0256C85.4771 57.1513 85.1846 57.2978 84.6822 57.4652C84.1798 57.6327 83.8873 57.8001 83.8029 57.9676C83.7197 58.135 83.552 58.2815 83.3005 58.4072C83.0496 58.5328 82.9241 58.6583 82.9241 58.7838C82.9241 58.8467 82.9241 58.9095 82.9241 58.9723C82.8403 58.9723 82.7565 58.9723 82.6726 58.9723C82.5056 58.9723 82.2745 59.0979 81.9821 59.349C81.6889 59.6002 81.4797 59.8724 81.3536 60.1654C81.2288 60.4583 81.1027 60.6258 80.9773 60.6677C80.8518 60.7095 80.7264 60.8561 80.6003 61.1072C80.4749 61.3584 80.3705 61.484 80.2861 61.484C80.2445 61.484 80.2029 61.484 80.1613 61.484C80.1817 61.5259 80.2029 61.5678 80.224 61.6096C80.2656 61.6933 80.1817 61.8189 79.9725 61.9864C79.7632 62.1538 79.6589 62.3002 79.6589 62.4261C79.6589 62.4884 79.6589 62.5513 79.6589 62.6143C79.6166 62.6143 79.575 62.6143 79.5334 62.6143C79.4912 62.6143 79.4489 62.6143 79.4073 62.6143C79.4073 62.698 79.4073 62.7817 79.4073 62.8655C79.4073 63.0329 79.1987 63.5145 78.7789 64.3099C78.3609 65.1054 78.1094 65.8375 78.0262 66.507C77.9417 67.1771 77.8592 67.5335 77.7747 67.5751C77.6915 67.6167 77.6493 68.5377 77.6493 70.338C77.6493 72.1383 77.9213 73.8126 78.4659 75.3614C79.0099 76.9102 79.3657 77.7479 79.5334 77.8727C79.7011 77.9988 79.847 78.2286 79.9725 78.5633C80.0979 78.8993 80.2445 79.0875 80.4121 79.1291C80.5798 79.1713 80.6841 79.3179 80.7264 79.5681C80.768 79.8203 81.0611 80.2171 81.6051 80.7617C82.1497 81.3057 82.7149 81.7665 83.3005 82.1428C83.8873 82.5198 84.1798 82.7495 84.1798 82.834C84.1798 82.9172 84.6189 83.1899 85.4989 83.65C86.3776 84.1108 86.8589 84.3201 86.9427 84.2785C87.0266 84.2363 87.1104 84.0065 87.1936 83.5873C87.2774 83.1694 87.047 82.8129 86.503 82.5198C85.959 82.2267 85.6237 82.1012 85.4989 82.1428C85.4355 82.1646 85.3728 82.1851 85.3094 82.2062C85.3094 82.1428 85.3094 82.0801 85.3094 82.0174C85.3094 81.8919 84.9747 81.5988 84.3053 81.138C83.6352 80.6779 83.2589 80.3643 83.175 80.1966C83.0912 80.0289 82.9869 79.9451 82.8608 79.9451C82.736 79.9451 82.2745 79.3383 81.4797 78.1243C80.6841 76.9102 80.0774 75.5707 79.6589 74.1051C79.2403 72.6407 79.0099 71.5099 78.9683 70.715C78.9261 69.9188 79.0099 68.9569 79.2192 67.826C79.4285 66.6958 79.6793 65.8382 79.9725 65.2519C80.2656 64.6651 80.4121 64.2471 80.4121 63.9954C80.4121 63.7449 80.5382 63.5145 80.7885 63.3049C81.0406 63.0959 81.1449 62.9492 81.1027 62.8655C81.0822 62.824 81.0611 62.7817 81.0406 62.7403C81.0822 62.7403 81.1232 62.7403 81.1654 62.7403C81.2493 62.7403 81.5008 62.4261 81.9193 61.7979C82.3379 61.1701 82.6099 60.8352 82.736 60.7932C82.8608 60.7515 82.9241 60.6677 82.9241 60.542C82.9241 60.4165 83.0912 60.1863 83.4266 59.8514C83.7613 59.5165 84.0333 59.3282 84.2425 59.2862C84.4518 59.2444 84.5984 59.1397 84.6822 58.9723C84.7661 58.8048 84.9126 58.7001 85.1213 58.6583C85.3312 58.6165 85.6237 58.449 86.0006 58.156C86.3776 57.8629 87.0054 57.5699 87.8841 57.2768C88.7641 56.9838 89.5801 56.8164 90.3334 56.7744C91.0873 56.7326 91.4848 56.6699 91.527 56.5861C91.5686 56.5024 92.0704 56.5024 93.0336 56.5861C93.9962 56.6699 94.5197 56.6699 94.6041 56.5861C94.6867 56.5024 94.8333 56.5024 95.0432 56.5861C95.2525 56.6699 95.3779 56.7745 95.4195 56.9001C95.4618 57.0257 95.671 57.0885 96.048 57.0885C96.2361 57.0885 96.4243 57.0885 96.6131 57.0885C96.6131 57.1303 96.6131 57.1722 96.6131 57.214C96.6131 57.2978 96.864 57.4443 97.3664 57.6537C97.8694 57.8629 98.2457 57.9676 98.4966 57.9676C98.7481 57.9676 98.8947 58.0304 98.9363 58.156C98.9785 58.2815 99.2294 58.449 99.6896 58.6583C100.15 58.8677 100.422 59.056 100.506 59.2235C100.59 59.3909 100.925 59.663 101.511 60.0397C102.097 60.4165 102.495 60.7724 102.704 61.1072C102.913 61.4421 103.081 61.6306 103.206 61.6724C103.332 61.7142 103.395 61.798 103.395 61.9236C103.395 62.0491 102.934 62.3631 102.013 62.8655C101.092 63.3678 100.548 63.7449 100.38 63.9954C100.212 64.2471 99.9411 64.498 99.5641 64.7495C99.1872 65.0004 98.9785 65.2097 98.9363 65.3774C98.9152 65.4612 98.8947 65.5444 98.8729 65.6283C98.9363 65.6283 98.999 65.6283 99.0617 65.6283C99.1872 65.6283 99.2922 65.5444 99.3754 65.3774C99.4598 65.2097 99.5641 65.1259 99.6896 65.1259C99.8157 65.1259 100.045 64.9793 100.38 64.6868C100.715 64.3931 101.092 64.1627 101.511 63.9954C101.93 63.8286 103.332 63.3678 105.718 62.6143C108.104 61.8608 109.757 61.4213 110.679 61.2956C111.6 61.1701 112.751 61.1072 114.132 61.1072C115.514 61.1072 116.246 61.1492 116.33 61.2329C116.414 61.3166 116.79 61.3794 117.46 61.4213C118.131 61.4631 118.947 61.6305 119.91 61.9236C120.872 62.2166 121.731 62.5513 122.484 62.9284C123.238 63.3049 123.782 63.5145 124.116 63.5561C124.451 63.5982 125.226 63.9332 126.44 64.5607C127.654 65.1892 128.805 65.9425 129.894 66.8212C130.982 67.7006 131.672 68.3489 131.966 68.7687C132.259 69.1867 132.606 69.7838 132.941 70.0353C133.276 70.2862 133.418 70.4942 133.501 70.7457C133.585 70.9966 133.873 71.2993 134.208 71.6347C134.543 71.9694 134.749 72.1588 134.917 72.6612C135.084 73.1636 135.273 73.394 135.482 73.3518C135.692 73.3102 135.562 73.6065 135.646 73.7735C135.729 73.9412 136.152 73.8337 136.361 73.9169C136.571 74.0007 136.863 74.0423 137.24 74.0423C137.617 74.0423 137.952 73.9591 138.245 73.7921C138.538 73.6244 139.166 72.8705 140.129 71.531C141.092 70.1908 141.699 69.4171 141.95 69.2078C142.201 68.9979 142.305 68.8513 142.264 68.7687C142.243 68.7265 142.222 68.6843 142.201 68.6427C142.285 68.6427 142.369 68.6427 142.452 68.6427C142.62 68.6427 142.829 68.475 143.08 68.1403C143.332 67.8055 143.499 67.6583 143.582 67.7006C143.667 67.7422 143.792 67.6583 143.959 67.4497C144.127 67.2398 144.566 67.0094 145.278 66.7591C145.99 66.507 146.346 66.3399 146.346 66.2567C146.346 66.2145 146.346 66.1723 146.346 66.1307C146.408 66.1518 146.471 66.1723 146.534 66.194C146.659 66.235 146.931 66.1723 147.35 66.0046C147.769 65.8382 148.145 65.7748 148.481 65.8164C148.815 65.8587 149.004 65.8375 149.046 65.7543C149.087 65.6699 149.234 65.6494 149.485 65.6916C149.736 65.7326 149.987 65.6916 150.239 65.5655C150.49 65.4401 150.657 65.4401 150.741 65.5655C150.825 65.6916 150.992 65.7326 151.244 65.6916C151.494 65.6494 151.683 65.6916 151.809 65.8164C151.934 65.9425 152.101 65.9841 152.311 65.9425C152.52 65.9003 152.708 65.9425 152.876 66.0679C153.044 66.194 153.336 66.2772 153.755 66.3188C154.173 66.3611 154.844 66.5703 155.764 66.9473C156.685 67.3236 157.398 67.7006 157.9 68.0769C158.003 68.155 158.099 68.2241 158.186 68.2843C158.524 68.5147 159.616 68.9358 159.658 68.8935C159.679 69.019 160.223 69.794 160.349 70.0865C160.474 70.3803 160.704 70.6727 161.039 70.9659C161.374 71.259 161.542 71.4894 161.542 71.6564C161.542 71.8241 161.604 71.9284 161.73 71.9707C161.855 72.0123 162.044 72.3054 162.295 72.8494C162.546 73.394 162.902 73.8337 163.363 74.1684C163.823 74.5031 164.535 74.7547 165.498 74.9217C166.461 75.0894 167.423 75.1316 168.386 75.0471C169.348 74.9639 170.186 74.9851 170.898 75.1099C171.609 75.2359 171.965 75.3403 171.965 75.4241C171.965 75.5079 172.195 75.634 172.656 75.8011C173.116 75.9687 173.493 76.1364 173.786 76.3035C174.079 76.4711 174.225 76.6171 174.225 76.7431C174.225 76.8686 174.351 76.9735 174.603 77.0567C174.854 77.1406 174.98 77.266 174.98 77.4337C174.98 77.6007 175.105 77.8727 175.356 78.2503C175.607 78.6267 175.837 78.8359 176.047 78.8775C176.152 78.8993 175.921 79.0036 176.026 79.0241C176.005 79.0663 176.319 79.0241 176.298 79.0657C176.277 79.1079 176.257 79.1502 176.235 79.1918C176.319 79.2129 176.403 79.2334 176.487 79.2545C176.654 79.2961 176.8 79.4017 176.926 79.5681C177.052 79.7358 177.324 79.9035 177.742 80.0705C178.161 80.2382 181.112 80.6574 181.572 80.8251C182.033 80.9921 182.263 81.138 182.263 81.2641C182.263 81.3895 182.389 81.5156 182.64 81.6404C182.892 81.7665 183.1 82.1012 183.268 82.6452C183.435 83.1899 183.582 83.5041 183.708 83.5873C183.833 83.6711 183.875 83.8599 183.833 84.1524C183.791 84.4455 183.812 84.6132 183.896 84.6548C183.98 84.6971 183.937 84.9479 183.77 85.4081C183.603 85.8689 183.08 86.2452 182.201 86.539C181.322 86.8315 180.463 86.9575 179.626 86.9153C179.208 86.8948 178.789 86.8737 178.37 86.8532C178.37 86.9153 178.37 86.978 178.37 87.0414C178.37 87.1035 178.37 87.1662 178.37 87.2295C178.161 87.1662 177.951 87.1035 177.742 87.0414C177.324 86.9153 177.01 86.8948 176.8 86.978C176.591 87.0619 173.849 87.1035 168.575 87.1035C163.3 87.1035 159.804 87.0414 158.088 86.9153C156.371 86.7898 155.032 86.7476 154.069 86.7898C153.106 86.8314 152.52 86.811 152.311 86.7271C152.101 86.6433 151.306 86.6011 149.924 86.6011C148.543 86.6011 147.769 86.6433 147.601 86.7271C147.434 86.811 147.308 86.811 147.224 86.7271C147.141 86.6433 146.848 86.5806 146.346 86.539C145.843 86.4967 143.48 86.5671 143.438 86.651C143.396 86.7342 141.119 86.5671 140.784 86.4833C140.449 86.3995 139.184 86.459 138.63 86.5396C137.964 86.6363 139.04 96.5019 138.999 116.051C138.957 135.601 138.978 145.481 139.061 145.69C139.146 145.9 139.146 147.114 139.061 149.332C139.025 150.279 139.089 151.909 138.761 152.19C138.486 152.426 136.957 152.699 135.734 152.723C133.598 152.765 132.154 152.89 131.4 153.1C130.647 153.309 129.434 153.519 127.759 153.727C126.084 153.937 125.017 154.125 124.556 154.293C124.096 154.46 123.153 154.502 122.986 154.67C122.819 154.837 122.673 154.879 122.547 154.796C122.421 154.712 122.212 154.732 121.919 154.858C121.626 154.984 121.374 155.026 121.165 154.984C120.956 154.942 120.265 155.004 119.093 155.172C117.921 155.34 117.293 155.465 117.21 155.549C117.125 155.633 116.686 155.695 115.891 155.737C115.095 155.779 114.676 155.842 114.635 155.925C114.593 156.01 114.09 156.072 113.128 156.114C112.164 156.156 111.495 156.239 111.119 156.365C110.741 156.49 109.653 156.637 109.674 156.68C107.832 156.7 105.99 156.721 104.148 156.742C100.465 156.784 98.5177 156.847 98.3085 156.93C98.2035 156.972 98.0985 157.014 97.9942 157.056C97.9942 157.014 97.9942 156.972 97.9942 156.93C97.9942 156.888 97.9942 156.847 97.9942 156.804C97.68 156.826 97.3664 156.847 97.0528 156.868C96.4243 156.909 95.6083 156.868 94.6041 156.742C93.5993 156.616 92.2176 156.554 90.4589 156.554C88.7008 156.554 87.7594 156.49 87.6333 156.365C87.5078 156.239 87.4656 153.916 87.5078 149.395C87.529 147.135 87.5494 144.874 87.5712 142.614C91.7779 142.614 95.9853 142.614 100.192 142.614C108.607 142.614 112.228 142.314 112.5 142.232C112.781 142.148 112.468 141.184 112.49 140.892C110.376 140.849 108.711 140.772 106.597 140.73C102.369 140.646 99.7318 140.646 98.6848 140.73C97.6384 140.813 96.1318 140.834 94.1638 140.792C92.1965 140.75 91.1289 140.772 90.9613 140.854C90.7942 140.939 90.1875 140.938 89.1405 140.854C88.8192 140.829 88.0595 141.099 87.8368 140.578C87.3331 139.398 87.5712 136.408 87.5712 132.692C87.5712 130.013 87.5712 127.334 87.5712 124.654C88.8269 124.634 90.0825 124.612 91.3376 124.591C93.8502 124.55 94.9414 124.471 95.1507 124.387C95.36 124.303 95.2947 123.946 95.2947 123.736C95.2947 123.527 95.3158 123.405 95.232 123.196C95.1482 122.986 94.1638 122.98 91.527 122.896C90.3673 122.86 88.1216 123.124 87.7241 122.976C87.3222 122.826 87.5712 118.248 87.5712 115.549C87.5712 110.735 87.5494 108.265 87.5078 108.14C87.4656 108.014 87.1309 107.93 86.503 107.889C86.1894 107.868 85.8752 107.846 85.5616 107.826C85.5616 115.466 85.5616 123.105 85.5616 130.746C85.5616 138.385 85.5616 146.025 85.5616 153.665C85.3517 153.581 85.1424 153.498 84.9331 153.414C84.5145 153.246 84.1376 153.016 83.8029 152.723C83.4675 152.43 83.2378 152.304 83.1123 152.346C83.0496 152.367 82.9869 152.388 82.9241 152.409C82.903 152.326 82.8825 152.241 82.8608 152.158C82.8192 151.991 82.4845 151.718 81.856 151.341C81.2288 150.964 80.9145 150.692 80.9145 150.525C80.9145 150.358 80.6841 150.127 80.224 149.835C79.7632 149.541 79.4489 149.269 79.2813 149.018C79.1142 148.767 78.6541 148.348 77.9001 147.763C77.1469 147.176 76.3117 146.698 76.2694 146.53C76.2278 146.362 75.6813 146.151 75.0125 145.69C74.3424 145.23 73.6096 144.874 72.8141 144.623C72.0192 144.371 71.0144 144.246 69.7997 144.246C68.5862 144.246 67.9539 144.426 67.7273 144.497C67.3229 144.625 66.5952 145.028 66.4096 145.125C65.9981 145.339 65.5091 146.025 65.3414 146.067C65.1744 146.109 65.0483 146.255 64.9651 146.506C64.8806 146.758 64.7763 146.904 64.6509 146.946C64.5254 146.988 63.9606 146.255 62.9559 144.748C61.9512 143.241 61.2184 142.257 60.7576 141.797C60.2975 141.336 59.9203 141.044 59.6276 140.918C59.3343 140.792 59.1668 140.666 59.1253 140.541C59.0831 140.415 58.6852 140.206 57.932 139.913C57.1785 139.62 56.7599 139.494 56.6761 139.537C56.6343 139.557 56.5924 139.578 56.5506 139.599C56.5297 139.557 56.5087 139.515 56.4877 139.473C56.4459 139.39 55.9854 139.369 55.1064 139.411C54.2272 139.453 53.5365 139.578 53.0342 139.788C52.5318 139.997 52.1341 139.913 51.8411 139.537C51.5481 139.16 51.3177 138.972 51.1503 138.972C51.0666 138.972 50.6689 138.428 50.2084 138.092C49.748 137.757 49.1828 137.464 48.513 137.213C47.8432 136.962 47.1943 136.815 46.5665 136.774C45.9384 136.732 45.0803 136.899 43.9919 137.276C42.9034 137.652 42.2337 137.987 41.9825 138.281C41.7313 138.573 41.543 138.929 41.4173 139.348C41.2918 139.767 41.2708 140.395 41.3545 141.232C41.4383 142.069 41.543 142.592 41.6685 142.802C41.7941 143.011 42.1918 144.602 42.3592 145.062C42.5266 145.523 42.6731 145.773 42.7988 145.816C42.9243 145.857 43.0081 146.109 43.05 146.57C43.0918 147.03 43.1755 147.344 43.3012 147.511C43.4267 147.679 43.5314 147.993 43.6151 148.453C43.6988 148.914 44.0756 149.395 44.0547 149.458C44.0127 149.583 44.0547 149.814 44.1802 150.149C44.243 150.316 44.3058 150.483 44.3686 150.651C43.6151 150.442 42.8616 150.232 42.108 150.023C40.601 149.604 39.4079 149.395 38.5288 149.395C37.6497 149.395 37.1473 149.458 37.0218 149.583C36.8961 149.709 36.7497 149.751 36.5822 149.709C36.4148 149.667 36.3101 149.688 36.2683 149.772C36.2264 149.855 36.0589 149.919 35.7659 149.96C35.4728 150.002 35.3054 150.086 35.2636 150.211C35.2216 150.337 35.0542 150.483 34.7612 150.651C34.4681 150.819 34.3426 150.944 34.3844 151.028C34.4263 151.111 34.3426 151.258 34.1332 151.467C33.924 151.677 33.8193 151.969 33.8193 152.346C33.8193 152.723 33.7774 152.932 33.6937 152.974C33.61 153.016 33.5681 153.225 33.5681 153.603C33.5681 153.979 33.6309 154.335 33.7565 154.67C33.882 155.005 34.3844 157.181 34.5101 157.181C34.6356 157.181 34.7612 157.411 34.8868 157.872C35.0124 158.332 35.2216 158.668 35.5147 158.877C35.8077 159.086 35.9334 159.233 35.8914 159.316C35.8705 159.359 35.8497 159.4 35.8287 159.442C35.9124 159.484 35.9961 159.526 36.0799 159.567C36.2473 159.651 36.352 159.798 36.3938 160.007C36.4357 160.216 36.6659 160.509 37.0845 160.886C37.5032 161.263 37.7125 161.514 37.7125 161.64C37.7125 161.765 37.7962 161.849 37.9636 161.891C38.1311 161.933 38.4032 162.205 38.78 162.708C39.1567 163.21 39.5963 163.649 40.0987 164.026C40.601 164.403 40.9359 164.717 41.1033 164.968C41.2708 165.219 41.4383 165.365 41.6057 165.407C41.7732 165.449 41.8778 165.553 41.9196 165.722C41.9616 165.889 42.1708 166.161 42.5476 166.538C42.9244 166.915 43.1965 167.124 43.3639 167.165C43.5314 167.207 43.7825 167.417 44.1174 167.793C44.4523 168.17 44.6617 168.338 44.7454 168.296C44.7873 168.275 44.8291 168.254 44.871 168.234C44.892 168.338 44.9128 168.442 44.9337 168.547C44.9757 168.756 45.1222 168.924 45.3733 169.049C45.6245 169.175 46.2733 169.782 47.3199 170.87C48.3665 171.959 48.9316 172.482 49.0153 172.44C49.0572 172.42 49.0991 172.398 49.1409 172.378C49.1409 172.42 49.1409 172.461 49.1409 172.502C49.1409 172.587 49.2246 172.65 49.3921 172.692C49.5595 172.733 49.6432 172.817 49.6432 172.943C49.6432 173.068 49.7689 173.257 50.02 173.507C50.2712 173.759 50.5433 173.926 50.8364 174.01C51.1293 174.094 51.3387 174.262 51.4642 174.512C51.5899 174.764 52.1969 175.308 53.2853 176.145C54.3737 176.982 54.9807 177.505 55.1064 177.715C55.2319 177.924 55.3576 178.029 55.4831 178.029C55.6087 178.029 55.7133 178.113 55.797 178.28C55.8808 178.448 56.0064 178.552 56.1738 178.594C56.3412 178.636 56.4669 178.74 56.5506 178.908C56.6343 179.075 56.7389 179.159 56.8646 179.159C56.9901 179.159 57.2204 179.327 57.5553 179.661C57.8902 179.996 58.1622 180.184 58.3716 180.227C58.5807 180.268 58.6852 180.352 58.6852 180.478C58.6852 180.604 60.1085 181.336 62.9559 182.676C65.8022 184.015 67.4349 184.726 67.8534 184.811C68.272 184.894 68.7321 185.061 69.2345 185.313C69.7369 185.564 73.2115 187.05 73.6307 187.26C74.0493 187.469 75.4515 188.034 77.8374 188.955C80.224 189.876 81.4585 190.399 81.543 190.525C81.6256 190.65 82.2745 191.007 83.4893 191.592C84.7027 192.179 86.9427 193.393 86.9427 193.476C86.9427 193.518 86.9427 193.56 86.9427 193.601C86.9843 193.581 87.0265 193.56 87.0688 193.539C87.1104 193.518 87.1514 193.497 87.1936 193.476C87.2147 193.539 87.2358 193.601 87.257 193.665C87.2986 193.79 87.6537 194.02 88.3238 194.356C88.9939 194.691 89.4752 195.004 89.7683 195.297C90.0614 195.59 90.4589 195.862 90.9613 196.113C91.4637 196.365 91.7357 196.553 91.7779 196.678C91.8195 196.804 92.0704 196.972 92.5312 197.181C92.9914 197.391 93.2217 197.537 93.2217 197.62C93.2217 197.704 93.4105 197.85 93.7875 198.06C94.1638 198.269 94.3942 198.353 94.4781 198.312C94.5619 198.269 94.7712 198.374 95.1059 198.625C95.4413 198.877 96.6547 199.19 96.7386 199.316C96.8224 199.441 97.0944 199.504 97.5552 199.504C98.0153 199.504 98.2662 199.546 98.3085 199.629C98.3501 199.714 98.9786 199.839 100.192 200.006C101.406 200.174 103.75 200.3 107.225 200.384C110.7 200.467 112.521 200.551 112.689 200.634C112.856 200.719 113.232 200.76 113.818 200.76C114.404 200.76 114.719 200.719 114.76 200.634C114.781 200.593 114.803 200.551 114.823 200.509C114.886 200.551 114.948 200.593 115.011 200.634C115.137 200.719 118.004 200.719 123.614 200.634C129.224 200.551 132.091 200.551 132.217 200.634C132.342 200.719 132.636 200.739 133.096 200.697C133.556 200.656 134.394 200.739 135.608 200.948C136.822 201.158 137.554 201.263 137.806 201.263C137.931 201.263 138.056 201.263 138.182 201.263C138.141 201.221 138.099 201.179 138.056 201.137C138.015 201.095 137.973 201.053 137.931 201.011C137.994 201.011 138.056 201.011 138.119 201.011C138.182 201.011 138.245 201.011 138.308 201.011C138.308 201.053 138.308 201.095 138.308 201.137C138.308 201.221 138.601 201.325 139.187 201.451C139.773 201.577 140.883 201.702 142.515 201.828C144.147 201.953 145.006 202.058 145.089 202.141C145.174 202.226 145.613 202.246 146.408 202.204C147.204 202.163 147.643 202.184 147.727 202.268C147.811 202.351 149.066 202.33 151.494 202.204C153.923 202.079 156.058 201.828 157.9 201.451C159.742 201.075 160.851 200.781 161.228 200.572C161.604 200.362 161.96 200.237 162.295 200.195C162.63 200.154 162.839 200.07 162.924 199.944C163.006 199.818 163.153 199.756 163.363 199.756C163.467 199.756 163.572 199.756 163.676 199.756C163.676 199.714 163.676 199.672 163.676 199.629C163.676 199.588 163.676 199.546 163.676 199.504C163.781 199.504 163.886 199.504 163.99 199.504C164.2 199.504 164.43 199.379 164.681 199.127C164.932 198.877 165.162 198.751 165.372 198.751C165.581 198.751 165.811 198.625 166.063 198.374C166.314 198.123 166.544 197.976 166.753 197.934C166.963 197.892 167.486 197.516 167.57 197.307C167.653 197.097 167.821 196.972 168.072 196.929C168.323 196.888 168.574 196.532 168.637 196.553C168.7 196.574 169.244 196.072 169.265 195.988C169.307 195.82 169.412 195.716 169.579 195.674C169.747 195.632 169.872 195.507 169.956 195.297C170.039 195.087 170.228 194.899 170.521 194.732C170.814 194.564 170.94 194.438 170.898 194.356C170.877 194.314 170.856 194.271 170.835 194.23C170.877 194.23 170.918 194.23 170.961 194.23C171.044 194.23 171.107 194.125 171.149 193.916C171.19 193.706 171.358 193.476 171.651 193.225C171.944 192.973 172.154 192.849 172.279 192.849C172.316 192.849 172.647 192.314 173.066 191.61C173.367 191.103 173.779 190.396 173.849 190.274C174.017 189.98 174.079 189.772 174.037 189.645C173.996 189.52 174.121 189.185 174.414 188.641C174.707 188.097 174.833 187.762 174.791 187.636C174.749 187.511 174.791 187.405 174.916 187.323C175.042 187.238 175.188 186.82 175.356 186.066C175.524 185.313 175.628 184.518 175.67 183.68C175.712 182.843 175.963 180.854 175.921 179.222C175.879 177.589 175.691 175.873 175.356 174.073C175.021 172.273 174.728 171.121 174.477 170.62C174.225 170.117 174.121 169.782 174.163 169.615C174.205 169.447 173.702 168.526 172.656 166.852C171.609 165.177 170.479 163.775 169.265 162.644C168.051 161.514 167.172 160.803 166.628 160.509C166.083 160.216 165.77 159.986 165.686 159.819C165.603 159.651 165.393 159.463 165.058 159.253C164.723 159.044 164.472 158.94 164.305 158.94C164.137 158.94 164.011 158.877 163.928 158.751C163.844 158.626 163.069 158.186 161.604 157.432C160.139 156.68 158.485 155.967 156.643 155.297C155.667 154.943 154.27 154.283 153.8 154.185C153.608 154.145 153.881 151.835 153.881 150.714C153.881 148.328 153.923 146.925 154.006 146.506C154.09 146.088 154.132 144.895 154.132 142.927C154.132 140.96 154.09 139.871 154.006 139.662C153.923 139.453 153.923 139.265 154.006 139.097C154.09 138.93 154.069 138.322 153.943 137.276C153.818 136.229 153.776 134.283 153.818 131.436C153.86 128.589 153.839 127.103 153.755 126.978C153.672 126.852 153.672 126.726 153.755 126.601C153.839 126.476 153.881 125.492 153.881 123.65C153.881 122.728 153.881 121.807 153.881 120.886C153.839 120.886 153.797 120.886 153.755 120.886C153.713 120.886 153.672 120.886 153.629 120.886C153.672 120.866 153.713 120.845 153.755 120.824C153.839 120.782 153.881 120.237 153.881 119.192C153.881 118.145 153.839 117.558 153.755 117.433C153.672 117.308 153.672 117.161 153.755 116.994C153.839 116.826 153.839 116.596 153.755 116.303C153.672 116.01 153.672 115.737 153.755 115.487C153.839 115.236 153.839 111.007 153.755 102.802C153.672 94.5972 153.692 90.3905 153.818 90.1806C153.943 89.9713 153.964 89.6577 153.881 89.2385C153.839 89.0299 153.797 88.8199 153.755 88.6107C153.964 88.6107 154.173 88.6107 154.383 88.6107C154.802 88.6107 155.074 88.5691 155.199 88.4852C155.325 88.4014 156.267 88.4225 158.025 88.5479C159.783 88.6734 161.772 88.7367 163.99 88.7367C166.209 88.7367 167.34 88.6951 167.382 88.6107C167.423 88.5275 167.612 88.5063 167.947 88.5479C168.115 88.5691 168.282 88.5895 168.449 88.6107C168.449 88.5691 168.449 88.5275 168.449 88.4852C168.449 88.443 168.449 88.4014 168.449 88.3598C168.595 88.3809 168.742 88.4014 168.888 88.4225C169.181 88.4647 169.412 88.443 169.579 88.3598C169.663 88.3175 169.747 88.2759 169.83 88.2343C169.851 88.2759 169.872 88.3175 169.893 88.3598C169.935 88.443 170.374 88.4852 171.212 88.4852C172.049 88.4852 172.593 88.443 172.844 88.3598C173.096 88.2759 174.582 88.2759 177.302 88.3598C180.024 88.443 181.719 88.3809 182.389 88.171C183.059 87.9623 183.603 87.6481 184.022 87.2295C184.44 86.811 184.733 86.3713 184.9 85.9105C185.068 85.4503 185.152 84.8852 185.152 84.2151C185.152 83.5457 185.089 83.1694 184.964 83.0849C184.838 83.0017 184.754 82.7713 184.712 82.3943C184.67 82.018 184.398 81.4945 183.896 80.8251C183.394 80.155 182.975 79.7147 182.64 79.506C182.305 79.2961 181.928 79.1291 181.51 79.0036C181.091 78.8775 180.819 78.8571 180.694 78.9409C180.568 79.0241 180.443 79.0241 180.317 78.9409C180.191 78.8571 179.291 78.9198 179.124 78.9409C179.124 78.8993 178.998 78.731 178.936 78.7527C178.81 78.7937 178.6 78.731 178.307 78.5633C178.015 78.3969 177.784 78.3547 177.617 78.4385C177.533 78.4807 177.449 78.3131 177.366 78.3547C177.386 78.2926 177.407 78.4385 177.428 78.3751C177.47 78.2503 177.261 77.9783 176.8 77.5591C176.34 77.1406 176.026 76.7636 175.859 76.4289C175.691 76.0942 175.482 75.8011 175.23 75.5495C174.98 75.2987 174.582 75.0683 174.037 74.859C173.493 74.6497 173.221 74.5031 173.221 74.4193C173.221 74.3361 172.677 74.1268 171.588 73.7921C170.5 73.4567 169.307 73.3102 168.009 73.3518C166.712 73.394 165.811 73.3518 165.309 73.2263C164.807 73.1009 164.346 72.8705 163.928 72.5351C163.508 72.2004 163.279 71.9079 163.236 71.6564C163.196 71.4055 162.965 71.0708 162.546 70.6516C162.127 70.2331 161.939 69.9399 161.981 69.7729C162.023 69.6059 161.709 69.1867 161.039 68.5166C160.369 67.8471 159.679 67.3031 158.967 66.8846C158.255 66.4654 157.356 66.0468 156.267 65.6283C155.178 65.2097 154.173 64.8955 153.252 64.6868C152.332 64.4769 151.222 64.3726 149.924 64.3726C148.627 64.3726 147.455 64.5191 146.408 64.8116C145.362 65.1054 144.797 65.314 144.713 65.4401C144.629 65.5655 144.483 65.6283 144.273 65.6283C144.064 65.6283 143.939 65.6916 143.896 65.8164C143.855 65.9425 143.688 66.0263 143.394 66.0679C143.101 66.1102 142.85 66.0046 142.641 65.7543C142.431 65.5022 142.243 65.3563 142.075 65.314C141.908 65.2724 141.72 64.7707 141.51 64.5607C141.301 64.3515 141.113 64.2471 140.945 64.2471C140.778 64.2471 140.611 64.1211 140.443 63.8702C140.275 63.619 140.003 63.3678 139.626 63.1166C139.25 62.8655 137.428 61.6515 136.927 61.484C136.424 61.3166 135.942 61.0654 135.482 60.7305C135.021 60.3956 134.54 60.1654 134.038 60.0397C133.535 59.9142 133.222 59.7676 133.096 59.6002C132.971 59.4327 132.552 59.2653 131.84 59.0979C131.129 58.9304 130.647 58.763 130.396 58.5955C130.145 58.4281 129.936 58.3652 129.768 58.4072C129.601 58.449 129.475 58.4071 129.391 58.2815C129.308 58.156 128.198 57.9257 126.063 57.5908C123.928 57.2559 122.107 57.0885 120.6 57.0885C119.093 57.0885 117.544 57.1931 115.953 57.4025C114.363 57.6117 112.689 57.9885 110.929 58.5327C109.172 59.077 107.727 59.6421 106.597 60.2281C105.467 60.8142 104.819 60.9607 104.651 60.6677C104.483 60.3747 104.294 60.1235 104.086 59.9142C103.876 59.7049 103.708 59.6002 103.583 59.6002C103.457 59.6002 103.373 59.5165 103.332 59.349C103.29 59.1816 103.185 59.077 103.018 59.035C102.851 58.9932 102.662 58.8258 102.452 58.5327C102.244 58.2397 102.076 58.0932 101.95 58.0932C101.825 58.0932 101.678 57.9885 101.511 57.7792C101.343 57.5699 101.155 57.4652 100.945 57.4652C100.737 57.4652 100.569 57.3605 100.443 57.1513C100.318 56.9419 100.045 56.7326 99.6275 56.5233C99.2083 56.314 98.6848 56.1466 98.0576 56.021C97.4291 55.8954 97.0528 55.7698 96.9267 55.6443C96.8013 55.5186 96.3827 55.4348 95.671 55.3931C94.9593 55.3511 94.5824 55.2884 94.5408 55.2046C94.4985 55.1209 93.8713 55.0791 92.6566 55.0791C91.4432 55.0791 90.7731 55.1419 90.647 55.2674ZM59.7529 70.1499C59.7113 70.4007 59.8788 70.6107 60.2552 70.7777C60.6323 70.9454 62.621 71.0075 66.2201 70.9659C69.8214 70.9236 71.7677 70.8404 72.0601 70.715C72.2073 70.6516 72.3539 70.5889 72.5005 70.5262C72.416 70.4007 72.3328 70.2753 72.2489 70.1499C72.0819 69.8983 69.9673 69.7729 65.9072 69.7729C61.846 69.7729 59.7951 69.8983 59.7529 70.1499ZM75.8912 86.0987C74.5517 87.4382 73.8189 88.1083 73.6934 88.1083C73.5673 88.1083 73.3587 88.2971 73.0649 88.6734C72.7725 89.0503 72.4582 89.3223 72.1235 89.49C71.7888 89.6577 71.4329 89.9713 71.056 90.4315C70.679 90.8923 70.4281 91.122 70.3021 91.122C70.1773 91.122 69.9469 91.2897 69.6115 91.6244C69.2768 91.9598 69.1091 92.2113 69.1091 92.379C69.1091 92.546 69.1929 92.6714 69.3606 92.7553C69.5277 92.8391 69.7792 92.818 70.1139 92.6926C70.4486 92.5671 70.8883 92.2113 71.4329 91.6244C71.9769 91.0395 72.5421 90.5371 73.1283 90.1179C73.7139 89.6999 74.384 89.0715 75.1373 88.2343C75.8912 87.3966 76.4141 86.8948 76.7072 86.7271C77.0003 86.5595 77.4189 86.2043 77.9635 85.6596C78.5075 85.1156 78.7789 84.7175 78.7789 84.4667C78.7789 84.3412 78.7789 84.2151 78.7789 84.0897C78.6329 84.0897 78.4864 84.0897 78.3398 84.0897C78.0473 84.0897 77.2307 84.7591 75.8912 86.0987ZM46.3153 138.092C47.1943 138.175 47.9479 138.406 48.5758 138.783C49.2037 139.16 49.5387 139.411 49.5805 139.537C49.6015 139.599 50.3153 139.942 50.7577 140.385C51.1944 140.821 51.4396 141.201 51.4812 141.325C51.5649 141.576 52.7411 142.906 52.9085 142.99C53.076 143.074 53.1387 143.178 53.0969 143.304C53.055 143.429 53.1179 143.535 53.2853 143.619C53.4528 143.701 53.5365 143.848 53.5365 144.058C53.5365 144.267 53.5993 144.392 53.7249 144.434C53.8505 144.476 53.997 144.769 54.1644 145.313C54.3319 145.857 55.4413 148.536 55.9854 149.583C56.5296 150.63 56.8436 151.153 56.9273 151.153C57.0111 151.153 57.0948 151.3 57.1785 151.593C57.2623 151.885 57.8274 152.514 58.8741 153.476C59.9203 154.44 60.7161 155.277 61.26 155.988C61.8045 156.7 62.1394 157.056 62.2646 157.056C62.3276 157.056 62.3906 157.056 62.4535 157.056C62.4321 157.14 62.4113 157.223 62.3906 157.307C62.3483 157.475 62.4113 157.601 62.5787 157.684C62.7462 157.767 62.9558 158.061 63.2064 158.563C63.4582 159.065 63.6465 159.316 63.7717 159.316C63.8976 159.316 64.1485 159.715 64.5254 160.509C64.9024 161.305 65.216 161.807 65.4675 162.017C65.7184 162.226 65.8233 162.394 65.7811 162.518C65.76 162.582 65.7395 162.644 65.7184 162.708C65.8022 162.708 65.8854 162.708 65.9699 162.708C66.1369 162.708 66.2419 162.833 66.2835 163.084C66.3257 163.335 66.5344 163.607 66.912 163.9C67.2883 164.193 68.2515 164.633 69.7997 165.219C71.3491 165.805 72.2701 166.496 72.5625 167.291C72.7097 167.689 72.8563 168.087 73.0029 168.484C72.8768 168.422 72.7507 168.358 72.6259 168.296C72.3744 168.17 71.3696 167.773 71.1814 167.731C70.8045 167.647 70.5747 167.542 70.4909 167.417C70.4064 167.291 69.3395 167.04 69.2973 166.915C69.2557 166.788 69.0675 166.643 68.7321 166.474C68.3974 166.307 67.9373 166.119 67.351 165.91C66.7648 165.7 66.1997 165.428 65.6557 165.093C65.111 164.758 64.7558 164.591 64.5881 164.591C64.4205 164.591 64.2957 164.528 64.2112 164.403C64.128 164.277 64.023 164.236 63.8976 164.277C63.7717 164.319 63.3953 164.026 62.767 163.398C62.1394 162.77 61.7208 162.456 61.5111 162.456C61.4066 162.456 61.3021 162.456 61.197 162.456C61.197 162.394 61.197 162.33 61.197 162.268C61.197 162.142 60.925 161.828 60.3812 161.326C59.8366 160.824 59.5017 160.572 59.3764 160.572C59.2505 160.572 59.1668 160.509 59.1253 160.384C59.0831 160.258 58.7274 160.007 58.0577 159.631C57.3878 159.253 57.032 159.002 56.9901 158.877C56.9483 158.751 56.8646 158.689 56.7389 158.689C56.6134 158.689 56.425 158.563 56.1738 158.312C55.9226 158.061 55.6296 157.893 55.2947 157.809C54.9598 157.725 54.6458 157.537 54.3528 157.244C54.0598 156.951 53.8086 156.784 53.5993 156.742C53.3899 156.7 53.1387 156.554 52.8458 156.302C52.5527 156.051 52.2806 155.905 52.0294 155.863C51.7783 155.821 51.6527 155.737 51.6527 155.612C51.6527 155.486 51.5062 155.361 51.2131 155.235C50.9201 155.109 50.5433 154.816 50.0829 154.356C49.6223 153.895 49.2456 153.603 48.9525 153.476C48.6596 153.351 48.4921 153.225 48.4502 153.1C48.4084 152.974 47.9897 152.702 47.1943 152.284C46.399 151.865 45.8756 151.216 45.6245 150.337C45.3733 149.458 44.9128 148.035 44.7454 147.825C44.5779 147.615 44.5151 147.427 44.557 147.26C44.5988 147.092 44.4733 146.716 44.1802 146.13C43.8872 145.544 43.7407 145.125 43.7407 144.874C43.7407 144.623 43.0918 142.634 42.7988 141.923C42.5057 141.211 42.4429 140.499 42.6104 139.788C42.7778 139.076 43.2175 138.595 43.929 138.343C44.6408 138.092 45.4361 138.009 46.3153 138.092ZM54.7924 140.73C54.8132 140.772 54.8342 140.813 54.8552 140.854C54.897 140.938 55.2738 141.044 55.9854 141.169C56.6971 141.295 57.4507 141.609 58.2459 142.111C59.0415 142.614 59.7529 143.22 60.3812 143.932C61.0088 144.644 61.6786 145.523 62.3906 146.57C63.1019 147.615 63.5205 148.16 63.6465 148.202C63.7717 148.244 63.9391 148.495 64.1485 148.956C64.3577 149.416 65.991 150.881 66.032 151.091C66.0742 151.3 66.9952 151.928 68.7949 152.974C70.5958 154.021 71.7888 154.774 72.3744 155.235C72.9606 155.695 73.2749 156.01 73.3165 156.177C73.3587 156.344 73.5891 156.637 74.0077 157.056C74.4256 157.475 74.9702 157.83 75.6397 158.124C75.975 158.269 76.3098 158.416 76.6445 158.563C76.6022 158.626 76.5606 158.689 76.519 158.751C76.4352 158.877 76.2886 158.961 76.0793 159.002C75.8701 159.044 75.7446 159.128 75.703 159.253C75.6608 159.379 75.5769 159.442 75.4515 159.442C75.3254 159.442 73.2749 162.017 73.0649 162.394C72.8563 162.77 72.6886 163.272 72.5625 163.9C72.5005 164.214 72.4377 164.528 72.3744 164.842C72.0819 164.758 71.7888 164.675 71.4957 164.591C70.9088 164.424 70.1139 164.089 69.1091 163.587C68.1043 163.084 67.4349 162.54 67.1001 161.953C66.7648 161.368 64.9024 158.94 64.839 158.94C64.8601 158.877 64.8806 158.416 64.7136 158.124C64.5459 157.83 64.3577 157.601 64.1485 157.432C63.9391 157.265 63.7302 156.993 63.5205 156.616C63.3115 156.239 63.1019 155.988 62.8929 155.863C62.6833 155.737 62.558 155.569 62.5158 155.361C62.4743 155.151 61.8882 154.524 60.7576 153.476C59.6276 152.43 58.9371 151.656 58.6852 151.153C58.4344 150.651 58.2669 150.399 58.1832 150.399C58.1414 150.399 58.0995 150.399 58.0577 150.399C58.0786 150.358 58.0995 150.316 58.1204 150.274C58.1622 150.19 58.0995 150.044 57.932 149.835C57.7646 149.625 57.639 149.311 57.5553 148.892C57.4715 148.474 57.3669 148.223 57.2413 148.14C57.1158 148.055 57.0529 147.909 57.0529 147.699C57.0529 147.491 56.2785 146.486 56.2366 146.193C56.1948 145.9 55.6924 144.769 55.4831 144.56C55.2738 144.35 55.1273 144.079 55.0435 143.743C54.9598 143.409 54.8342 143.22 54.6667 143.178C54.4993 143.137 54.3319 142.906 54.1644 142.488C53.997 142.069 53.8505 141.839 53.7249 141.797C53.5993 141.755 53.5156 141.629 53.4736 141.42C53.4528 141.316 53.4319 141.211 53.4109 141.107C53.5993 141.107 53.7876 141.107 53.976 141.107C54.3528 141.107 54.583 141.044 54.6667 140.918C54.7087 140.855 54.7505 140.792 54.7924 140.73ZM69.9257 145.753C70.6374 145.837 71.0144 145.837 71.056 145.753C71.0771 145.711 71.2025 145.753 71.2441 145.816C71.3286 145.941 71.7465 146.088 72.5005 146.255C72.8768 146.339 73.5891 146.59 73.5673 146.632C73.5257 146.716 73.9021 146.967 74.6982 147.385C75.4931 147.805 75.9328 148.097 76.0166 148.265C76.1005 148.432 76.3725 148.642 76.8326 148.892C77.2934 149.144 78.0883 149.835 79.2192 150.964C80.3494 152.095 81.3958 152.974 82.3584 153.603C83.3216 154.23 84.0544 154.628 84.5568 154.796C85.0592 154.963 85.3728 155.109 85.4989 155.235C85.6237 155.361 85.6659 155.591 85.6237 155.925C85.5821 156.26 85.0169 156.449 83.9283 156.49C82.8403 156.532 81.6256 156.721 80.2861 157.056C78.9465 157.391 77.8169 157.37 76.896 156.993C75.975 156.616 74.9491 155.863 73.8189 154.732C72.6886 153.603 71.9353 152.911 71.5584 152.66C71.1814 152.409 69.7581 151.593 69.2973 151.467C68.8371 151.342 68.544 151.195 68.4185 151.028C68.2931 150.86 68.1254 150.776 67.9161 150.776C67.7069 150.776 67.3094 150.462 66.7225 149.835C66.1369 149.206 65.8022 148.704 65.7184 148.328C65.6352 147.951 65.6768 147.595 65.8438 147.26C66.0115 146.925 66.5139 146.444 66.4723 146.381C66.5344 146.339 66.5977 146.298 66.6605 146.255C66.7859 146.172 67.207 146.005 67.3939 145.902C67.5801 145.8 67.8528 145.725 68.1875 145.558C68.5229 145.391 69.2141 145.669 69.9257 145.753ZM39.5336 151.153C40.8312 151.321 42.1918 151.697 43.6151 152.284C45.0384 152.87 45.7919 153.142 45.8756 153.1C45.9594 153.058 47.5292 154 47.5711 154.168C47.6129 154.335 47.9897 154.67 48.7014 155.172C49.413 155.675 49.7897 155.988 49.8317 156.114C49.8735 156.239 49.9992 156.323 50.2084 156.365C50.4178 156.407 50.5643 156.512 50.648 156.68C50.7317 156.847 50.9201 156.972 51.2131 157.056C51.5062 157.14 51.6527 157.244 51.6527 157.37C51.6527 157.495 51.8411 157.621 52.2178 157.747C52.5946 157.872 55.504 159.777 56.9273 160.698C58.3506 161.619 59.272 162.31 59.6899 162.77C60.1092 163.231 60.4856 163.565 60.8205 163.775C61.1554 163.984 61.3644 164.068 61.4488 164.026C61.4904 164.005 61.5325 163.984 61.5741 163.963C61.5533 164.005 61.5325 164.047 61.5111 164.089C61.4696 164.172 61.6162 164.382 61.9512 164.717C62.2861 165.052 62.621 165.324 62.9559 165.533C63.2907 165.743 63.8554 165.994 64.6509 166.286C65.4464 166.58 65.8438 166.768 65.8438 166.852C65.8438 166.935 66.1581 167.061 66.7859 167.229C67.4137 167.396 67.8739 167.585 68.1677 167.793C68.4601 168.003 68.7744 168.128 69.1091 168.17C69.4445 168.212 69.6115 168.275 69.6115 168.358C69.6115 168.442 69.9046 168.568 70.4909 168.736C71.0771 168.903 71.4329 169.049 71.5584 169.175C71.6838 169.3 71.872 169.363 72.1235 169.363C72.3744 169.363 74.2579 170.096 74.5101 170.305C74.7603 170.515 75.5981 170.87 75.7651 171.121C75.9328 171.373 76.0793 171.498 76.2054 171.498C76.2675 171.498 76.3302 171.498 76.3936 171.498C76.3725 171.54 76.352 171.583 76.3302 171.624C76.3097 171.665 76.2886 171.708 76.2675 171.75C76.5401 171.833 76.8121 171.917 77.0841 172.001C77.6281 172.168 77.9417 172.335 78.0262 172.502C78.1094 172.67 78.4026 172.796 78.905 172.88C79.4074 172.964 79.7216 173.068 79.847 173.194C79.9725 173.319 80.0979 173.361 80.224 173.319C80.3494 173.277 80.496 173.34 80.663 173.507C80.8307 173.675 81.5635 173.926 82.8608 174.262C84.1587 174.596 85.4989 174.847 86.88 175.014C88.2617 175.182 88.9728 175.308 89.015 175.391C89.0566 175.475 89.4336 175.58 90.1453 175.706C90.857 175.831 93.3689 176.187 94.4147 176.271C95.4617 176.354 96.32 176.48 96.9894 176.648C97.6595 176.815 99.2506 176.982 101.762 177.15C104.274 177.317 106.702 177.401 109.046 177.401C111.39 177.401 113.044 177.443 114.006 177.526C114.97 177.611 115.87 177.693 115.953 177.652C115.932 177.693 117.628 178.406 118.528 178.657C120.328 179.159 122.024 179.745 123.614 180.415C125.205 181.085 126.481 181.503 127.444 181.671C128.407 181.838 129.328 181.901 130.207 181.859C131.087 181.818 131.568 181.713 131.652 181.545C131.736 181.377 131.715 181.21 131.588 181.043C131.464 180.875 131.276 180.75 131.023 180.666C130.898 180.625 130.773 180.582 130.647 180.54C130.647 180.646 130.375 180.457 130.082 180.29C129.789 180.122 129.475 180.038 129.14 180.038C128.805 180.038 128.324 179.913 127.696 179.661C127.068 179.411 126.628 179.285 126.377 179.285C126.126 179.285 125.205 178.95 123.614 178.28C122.024 177.611 121.039 177.254 120.663 177.213C120.286 177.171 120.098 177.108 120.098 177.024C120.098 176.941 119.993 176.856 119.784 176.773C119.574 176.689 119.344 176.648 119.093 176.648C118.842 176.648 118.465 176.543 117.962 176.333C117.46 176.124 116.33 175.894 114.572 175.643C112.813 175.391 111.014 175.287 109.172 175.329C107.33 175.371 105.007 175.308 102.202 175.14C99.3971 174.973 97.2614 174.742 95.7965 174.45C94.3315 174.156 93.4106 174.031 93.0336 174.073C92.6566 174.115 92.3641 174.073 92.1542 173.948C91.9456 173.821 91.6941 173.78 91.4009 173.821C91.255 173.843 91.1085 173.864 90.9613 173.885C90.9613 173.843 88.1145 173.445 87.9475 173.319C87.7798 173.194 87.3824 173.11 86.7545 173.068C86.1261 173.027 84.8704 172.775 82.9869 172.314C81.1027 171.854 80.1613 171.583 80.1613 171.498C80.1613 171.415 80.0358 171.31 79.7837 171.185C79.5334 171.059 79.0931 170.891 78.4659 170.682C77.8374 170.472 77.5027 170.305 77.4611 170.18C77.4189 170.054 77.2512 169.991 76.9587 169.991C76.6656 169.991 76.4768 169.887 76.3936 169.677C76.343 169.552 73.9149 167.501 73.8816 167.417C73.7977 167.207 73.735 166.977 73.6934 166.726C73.68 166.648 73.5405 166.153 73.6691 165.583C73.7478 165.237 74.0185 164.805 74.0499 164.726C74.1337 164.517 74.2374 164.277 74.1958 164.152C74.1536 164.026 74.2374 163.859 74.4467 163.649C74.656 163.439 74.7603 163.231 74.7603 163.021C74.7603 162.812 74.8448 162.666 75.0125 162.582C75.1789 162.498 75.2627 162.394 75.2627 162.268C75.2627 162.142 75.3677 162.038 75.5769 161.953C75.7862 161.87 75.8912 161.765 75.8912 161.64C75.8912 161.514 76.0377 161.305 76.3302 161.012C76.624 160.719 77.0842 160.364 77.712 159.944C78.3398 159.526 78.7584 159.316 78.9683 159.316C79.0726 159.316 79.1769 159.316 79.2813 159.316C79.2813 159.274 79.2813 159.233 79.2813 159.191C79.2813 159.107 79.5334 158.982 80.0358 158.814C80.5382 158.646 81.3958 158.479 82.6099 158.312C83.824 158.144 84.7027 158.102 85.2474 158.186C85.7914 158.269 86.9427 158.269 88.7008 158.186C90.4589 158.102 91.4009 158.102 91.527 158.186C91.6518 158.269 92.2598 158.312 93.3472 158.312C94.4365 158.312 95.0643 158.354 95.2313 158.437C95.399 158.522 96.7808 158.563 99.3754 158.563C101.972 158.563 103.353 158.522 103.52 158.437C103.688 158.354 108.23 158.312 108.607 158.312C108.983 158.312 109.213 158.269 109.297 158.186C109.381 158.102 109.674 158.081 110.177 158.124C110.679 158.165 110.951 158.144 110.993 158.061C111.035 157.977 120.559 156.7 120.726 156.742C120.809 156.762 120.893 156.784 120.977 156.804C120.977 156.762 120.977 156.721 120.977 156.68C120.977 156.596 121.5 156.49 122.547 156.365C123.594 156.239 124.305 156.093 124.682 155.925C125.059 155.757 125.519 155.675 126.063 155.675C126.335 155.675 130.354 155.046 131.526 154.796C132.698 154.544 133.703 154.418 134.54 154.418C135.377 154.418 135.817 154.376 135.859 154.293C135.901 154.209 136.047 154.209 136.299 154.293C136.549 154.376 136.696 154.376 136.738 154.293C136.78 154.209 137.052 154.188 137.554 154.23C138.056 154.272 138.349 154.251 138.433 154.168C138.517 154.083 139.396 154.084 141.071 154.168C142.745 154.251 143.604 154.251 143.645 154.168C143.666 154.125 143.688 154.084 143.708 154.042C143.729 154.105 143.75 154.168 143.771 154.23C143.812 154.356 144.001 154.376 144.337 154.293C144.671 154.209 145.048 154.23 145.466 154.356C145.885 154.481 146.179 154.502 146.346 154.418C146.513 154.335 146.681 154.335 146.848 154.418C147.016 154.502 147.245 154.524 147.539 154.481C147.685 154.46 147.832 154.44 147.978 154.418C147.978 154.46 147.978 154.502 147.978 154.544C147.978 154.628 148.397 154.712 149.234 154.796C150.071 154.879 150.972 155.089 151.934 155.423C152.897 155.757 153.546 155.925 153.881 155.925C154.049 155.925 154.216 155.925 154.383 155.925C154.383 155.988 154.383 156.051 154.383 156.114C154.383 156.239 155.053 156.512 156.393 156.93C157.732 157.349 159.512 158.124 161.73 159.253C163.949 160.384 165.121 161.054 165.246 161.263C165.372 161.473 165.581 161.619 165.875 161.703C166.167 161.786 166.335 161.891 166.377 162.017C166.419 162.142 166.732 162.394 167.318 162.77C167.905 163.147 168.386 163.523 168.763 163.9C169.14 164.277 169.328 164.528 169.328 164.654C169.328 164.78 169.537 165.01 169.956 165.345C170.374 165.679 170.647 166.014 170.772 166.349C170.898 166.684 171.023 166.852 171.149 166.852C171.274 166.852 171.651 167.542 172.279 168.924C172.908 170.305 173.2 171.059 173.158 171.185C173.116 171.31 173.242 171.812 173.535 172.692C173.828 173.571 173.975 174.324 173.975 174.952C173.975 175.58 174.037 175.998 174.163 176.208C174.289 176.417 174.331 176.815 174.289 177.401C174.247 177.987 174.268 178.342 174.351 178.468C174.435 178.594 174.477 178.866 174.477 179.285C174.477 179.703 174.435 180.017 174.351 180.227C174.268 180.436 174.268 180.625 174.351 180.792C174.393 180.875 174.435 180.959 174.477 181.043C174.435 181.043 174.393 181.043 174.351 181.043C174.31 181.043 174.268 181.043 174.225 181.043C174.225 181.336 174.225 181.629 174.225 181.922C174.225 182.508 174.163 182.989 174.037 183.366C173.912 183.743 173.891 184.057 173.975 184.308C174.058 184.559 173.995 184.936 173.786 185.439C173.577 185.941 173.493 186.296 173.535 186.506C173.577 186.715 173.535 186.904 173.41 187.071C173.284 187.238 173.221 187.427 173.221 187.636C173.221 187.846 173.075 188.097 172.781 188.39C172.489 188.683 172.342 188.997 172.342 189.332C172.342 189.667 172.237 189.897 172.028 190.022C171.819 190.148 171.19 191.215 171.149 191.467C171.107 191.718 170.898 192.012 170.521 192.346C170.145 192.681 169.956 192.932 169.956 193.099C169.956 193.267 169.851 193.393 169.642 193.476C169.537 193.518 168.679 194.439 168.699 194.481C168.616 194.502 168.532 194.523 168.449 194.544C168.282 194.586 168.135 194.732 168.009 194.983C167.884 195.235 167.758 195.339 167.633 195.297C167.507 195.255 167.36 195.36 167.192 195.611C167.025 195.862 166.209 196.218 166 196.428C165.791 196.637 165.518 196.783 165.183 196.867C164.849 196.95 164.681 197.035 164.681 197.118C164.681 197.202 164.388 197.391 163.802 197.683C163.216 197.976 162.442 198.29 161.478 198.625C160.516 198.96 159.992 199.107 159.909 199.065C159.867 199.044 159.825 199.023 159.783 199.002C159.763 199.044 159.742 199.085 159.72 199.127C159.679 199.212 159.595 199.233 159.469 199.19C159.407 199.169 159.344 199.149 159.281 199.127C159.281 199.169 159.281 199.212 159.281 199.253C159.281 199.337 158.946 199.421 158.276 199.504C157.606 199.588 157.251 199.672 157.208 199.756C157.167 199.839 156.957 199.86 156.581 199.818C156.204 199.776 155.178 199.86 153.504 200.07C151.829 200.278 150.218 200.384 148.669 200.384C147.12 200.384 145.006 200.237 142.327 199.944C139.647 199.651 137.784 199.4 136.738 199.19C135.692 198.981 130.438 198.897 120.977 198.939C111.516 198.981 106.011 198.96 104.462 198.877C102.913 198.792 102.054 198.709 101.887 198.625C101.72 198.542 101.323 198.52 100.694 198.563C100.38 198.583 100.067 198.604 99.7523 198.625C99.7734 198.583 99.4176 198.269 99.2505 198.312C99.0829 198.353 98.6432 198.29 97.9315 198.122C97.2198 197.955 96.6342 197.725 96.1734 197.432C95.7133 197.139 95.3779 196.993 95.1686 196.993C95.0643 196.993 94.9594 196.993 94.8544 196.993C94.8544 196.95 94.8544 196.909 94.8544 196.867C94.8544 196.783 94.4781 196.532 93.7241 196.113C92.9709 195.695 92.5728 195.423 92.5312 195.297C92.4896 195.171 92.4058 195.108 92.2803 195.108C92.1542 195.108 91.9456 194.963 91.6518 194.669C91.3593 194.376 91.1494 194.25 91.0246 194.292C90.8985 194.334 90.7731 194.25 90.647 194.042C90.5222 193.832 90.3546 193.706 90.1453 193.665C89.936 193.623 89.4963 193.351 88.8262 192.849C88.1561 192.346 87.047 191.655 85.4989 190.776C83.9494 189.897 82.9446 189.395 82.4845 189.269C82.0237 189.143 81.4797 188.892 80.8518 188.516C80.224 188.138 79.5955 187.866 78.9683 187.699C78.3398 187.532 78.0262 187.405 78.0262 187.323C78.0262 187.238 77.9001 187.134 77.6493 187.009C77.3977 186.883 77.0214 186.757 76.519 186.632C76.0166 186.506 75.4726 186.276 74.8864 185.941C74.3001 185.606 73.7977 185.396 73.3792 185.313C72.9606 185.229 72.7097 185.124 72.6259 184.999C72.5421 184.873 72.2073 184.748 71.6211 184.622C71.3286 184.559 71.0349 184.497 70.7417 184.434C70.7629 184.392 70.784 184.35 70.8045 184.308C70.8262 184.266 70.8467 184.224 70.8678 184.182C70.7001 184.099 69.3395 183.785 69.2345 183.806C69.2557 183.764 69.0675 183.513 68.9209 183.492C68.6278 183.45 67.4553 182.948 65.4048 181.985C63.3531 181.022 62.1394 180.52 61.7623 180.478C61.3858 180.436 60.988 180.205 60.5694 179.788C60.1508 179.368 59.8574 179.159 59.6899 179.159C59.5225 179.159 56.6343 176.919 56.5506 176.71C56.4669 176.5 56.2575 176.312 55.9226 176.145C55.5878 175.978 54.9439 175.252 54.7041 175.061C54.59 174.971 54.452 174.872 54.29 174.764C53.7876 174.429 53.4528 174.136 53.2853 173.885C53.1179 173.633 52.8458 173.445 52.469 173.319C52.0923 173.194 51.862 173.005 51.7783 172.755C51.6945 172.502 51.4852 172.273 51.1503 172.063C50.8154 171.854 50.5433 171.603 50.3341 171.31C50.1247 171.017 49.9572 170.87 49.8317 170.87C49.706 170.87 49.4548 170.64 49.0782 170.18C48.7014 169.719 46.6502 168.087 46.1896 167.542C45.7292 166.998 45.3733 166.684 45.1222 166.6C44.871 166.516 44.5988 166.266 44.3058 165.847C44.0127 165.428 43.8035 165.219 43.6779 165.219C43.5523 165.219 43.1546 164.842 42.4848 164.089C41.815 163.335 41.3545 162.916 41.1033 162.833C40.8521 162.749 40.5382 162.456 40.1614 161.953C39.7847 161.451 39.5126 161.179 39.3451 161.137C39.1777 161.096 38.9892 160.907 38.78 160.572C38.5706 160.237 38.3823 160.028 38.2148 159.944C38.0474 159.861 37.9428 159.735 37.9009 159.567C37.8591 159.4 37.7334 159.212 37.5241 159.002C37.3147 158.793 37.1473 158.689 37.0218 158.689C36.8961 158.689 36.7497 158.479 36.5822 158.061C36.4148 157.642 36.2473 157.37 36.0799 157.244C35.9124 157.119 35.8497 156.993 35.8914 156.868C35.9334 156.742 35.8497 156.574 35.6402 156.365C35.431 156.156 35.3263 155.947 35.3263 155.737C35.3263 155.528 35.2635 155.381 35.1379 155.297C35.0124 155.214 34.9287 154.942 34.8868 154.481C34.8449 154.021 34.8449 153.603 34.8868 153.225C34.9287 152.849 35.0333 152.556 35.2008 152.346C35.3682 152.137 35.5565 151.991 35.7659 151.907C35.9752 151.823 36.1009 151.718 36.1426 151.593C36.1846 151.467 36.4357 151.321 36.8961 151.153C37.3567 150.986 38.2358 150.986 39.5336 151.153Z" fill="#FAF7F0"></path><path fill-rule="evenodd" clip-rule="evenodd" d="M57.068 51.3565C56.9957 51.4502 56.3887 51.6547 55.2475 51.9699C54.1062 52.2852 53.4812 52.5131 53.3726 52.6536C53.2641 52.7942 53.0256 52.9092 52.6572 52.9986C52.2888 53.0882 51.7729 53.3442 51.1098 53.7669C50.4465 54.1897 49.871 54.4745 49.3834 54.6215C48.8958 54.7685 48.5434 54.9825 48.3263 55.2636C48.1091 55.5447 47.4176 56.0766 46.2518 56.8592C45.0861 57.6419 44.4516 58.1242 44.3484 58.3063C44.2451 58.4883 43.9992 58.7098 43.6106 58.9706C43.222 59.2316 42.777 59.7107 42.2756 60.4081C41.7741 61.1056 41.4042 61.5117 41.1658 61.6267C40.9273 61.7417 40.7436 61.9552 40.6149 62.2672C40.486 62.5791 40.3621 62.7639 40.2428 62.8214C40.1236 62.8789 40.0719 62.9699 40.0879 63.0945C40.1039 63.219 39.9128 63.539 39.5147 64.0545C39.1166 64.5697 38.9153 64.9754 38.9111 65.2718C38.9068 65.5674 38.8424 65.7236 38.7179 65.739C38.5933 65.755 38.4901 65.9374 38.4081 66.2855C38.3262 66.6337 38.2074 66.8596 38.052 66.9646C37.8966 67.0689 37.8141 67.2474 37.8046 67.5028C37.795 67.7569 37.7023 68.0225 37.5267 68.2977C37.3511 68.5742 37.2766 68.8148 37.3032 69.0228C37.3298 69.2302 37.2606 69.513 37.0956 69.8721C36.9308 70.2318 36.8184 70.8372 36.7589 71.6884C36.6993 72.5402 36.7041 73.2359 36.7734 73.7754C36.8426 74.3156 36.7245 74.7105 36.4189 74.9607C36.1134 75.211 35.8394 75.5418 35.5965 75.9521C35.3539 76.3636 35.1702 76.5767 35.0457 76.5927C34.921 76.6087 34.5256 77.145 33.8591 78.201C33.1928 79.2577 32.8213 79.9809 32.7447 80.37C32.668 80.7598 32.5882 80.9601 32.5052 80.9703C32.4222 80.9812 32.2779 81.3377 32.0725 82.0391C31.8671 82.7406 31.7228 83.097 31.6398 83.1073C31.5567 83.1182 31.3391 84.0538 30.9868 85.913C30.6346 87.7735 30.4798 89.6922 30.5226 91.6711C30.5653 93.6487 30.6688 95.113 30.8327 96.0622C30.9969 97.0126 31.1257 97.5233 31.2194 97.5956C31.3131 97.6679 31.4494 98.0724 31.6284 98.8097C31.8072 99.5463 31.9382 99.9086 32.0213 99.8983L32.1458 99.8823L32.1858 100.194C32.2125 100.402 32.3951 100.673 32.7336 101.01C33.0723 101.346 33.3246 101.504 33.4908 101.483L33.7398 101.451L33.6999 101.139C33.6732 100.931 33.5844 100.732 33.433 100.54C33.282 100.349 33.0646 99.8068 32.7814 98.9146C32.4981 98.0225 32.2766 96.9537 32.1167 95.7082C31.9569 94.4622 31.8822 93.058 31.8929 91.4951C31.9032 89.9316 32.0001 88.5479 32.1831 87.3428C32.3662 86.1377 32.6348 84.9422 32.9893 83.7575C33.3437 82.5722 33.8254 81.3921 34.4343 80.2164C35.0432 79.0414 35.601 78.1255 36.1077 77.4695C36.6145 76.8135 36.9301 76.4775 37.0547 76.4615C37.1792 76.4455 37.3806 76.8634 37.6584 77.7134C37.9365 78.5646 38.2581 79.2622 38.6232 79.8055C38.9885 80.3502 39.3532 80.7246 39.7174 80.9319C40.0814 81.138 40.2716 81.3038 40.2875 81.4279L40.3114 81.6148L40.6228 81.5751C40.8305 81.5482 41.0099 81.6314 41.161 81.8228C41.3123 82.0142 41.5205 82.1569 41.7855 82.249C42.0507 82.3418 42.622 82.3527 43.4991 82.2823C44.3765 82.2119 44.8486 82.1089 44.9157 81.9745C44.9827 81.8388 45.159 81.7319 45.4443 81.6532C45.7296 81.5738 46.1096 81.0823 46.5845 80.1774C47.0592 79.2724 47.2194 78.2177 47.0648 77.0132C46.9104 75.8094 46.7496 75.049 46.5823 74.7329C46.4152 74.4167 46.2666 74.2458 46.1368 74.2209C46.0068 74.1946 45.8142 74.009 45.5586 73.6615C45.303 73.3146 45.0038 73.1207 44.661 73.0804C44.3182 73.0401 44.1155 72.9396 44.0526 72.779C44.035 72.7335 44.0176 72.6894 44.0001 72.6446C43.9862 72.6087 43.9722 72.5729 43.9582 72.537C43.9014 72.587 43.8444 72.6369 43.7874 72.6862C43.6735 72.7847 43.5228 72.7617 43.3354 72.617C43.1481 72.473 42.8414 72.3854 42.4156 72.3553C41.9896 72.3258 41.2295 72.4865 40.135 72.8378C39.5978 73.0106 39.0606 73.1828 38.5233 73.3556L38.5199 73.3562L38.4933 73.3652C38.5585 72.7252 38.6238 72.0858 38.6892 71.4458L38.6897 71.4407C38.8204 70.1575 39.0892 68.9626 39.4958 67.8548C39.9024 66.7482 40.3793 65.6948 40.9265 64.6964C41.4736 63.6975 41.8819 63.0965 42.1512 62.8931C42.4205 62.6897 42.5653 62.5023 42.5856 62.3309C42.6058 62.1595 42.6963 62.0423 42.857 61.9795C43.0178 61.9168 43.1861 61.7474 43.3616 61.4716C43.5374 61.1959 43.6874 61.05 43.8119 61.034C43.9366 61.018 44.0659 60.8748 44.2 60.6044C44.3342 60.3339 44.6317 60.0214 45.0927 59.6669C45.5537 59.3123 45.8538 59.0205 45.9933 58.7916C46.1327 58.5626 46.3063 58.4349 46.5139 58.4083C46.7215 58.3817 46.8796 58.298 46.9882 58.1575C47.0968 58.0169 47.1404 57.8636 47.1191 57.6976L47.0872 57.4484L47.4609 57.4005C47.71 57.3685 47.9251 57.2354 48.106 57.0012C48.287 56.7669 48.4812 56.6365 48.6889 56.6098C48.8965 56.5832 49.0312 56.4815 49.0929 56.3048C49.1546 56.128 49.3878 55.9715 49.7924 55.8352C50.1969 55.6989 50.6116 55.4769 51.0364 55.1691C51.4611 54.8614 51.7386 54.7203 51.8684 54.7459C51.9983 54.7713 52.0968 54.7166 52.1638 54.5813C52.2309 54.4462 52.4667 54.3104 52.8713 54.174C53.2758 54.0377 53.4936 53.9253 53.5244 53.837C53.5553 53.7486 53.7161 53.6858 54.0067 53.6485L54.4427 53.5926L54.4267 53.468L54.4108 53.3434L54.909 53.2795C55.2412 53.2369 55.5238 53.1373 55.757 52.9808C55.9902 52.8242 56.4362 52.6826 57.0953 52.5559C57.7543 52.4291 58.0913 52.2593 58.1061 52.0463C58.121 51.8334 57.9698 51.6418 57.6526 51.4715C57.3352 51.3011 57.1404 51.2628 57.068 51.3565ZM43.9169 74.1889C43.4591 73.9098 42.8666 73.7326 42.1393 73.657C41.4122 73.5815 40.6547 73.7633 39.8669 74.2017C39.079 74.6407 38.8428 75.4305 39.158 76.5716C39.4732 77.7134 39.7272 78.377 39.9199 78.5633C40.1126 78.7495 40.1962 78.9076 40.1708 79.0375C40.1451 79.1674 40.2442 79.2814 40.4678 79.3793C40.6913 79.4772 40.8607 79.6455 40.9757 79.8836C41.0907 80.1223 41.3329 80.3655 41.7024 80.6138C42.0718 80.8615 42.4722 81.0215 42.9034 81.0926C43.3346 81.1642 43.6928 81.1598 43.9782 81.0817C44.2634 81.0023 44.6207 80.6612 45.0497 80.0577C45.4787 79.4542 45.7235 78.8948 45.7841 78.3802C45.8448 77.8663 45.791 77.2826 45.6228 76.6292C45.4545 75.9751 45.2425 75.4746 44.987 75.1278C44.7314 74.7802 44.3747 74.4673 43.9169 74.1889Z" fill="#FAF7F0"></path><path fill-rule="evenodd" clip-rule="evenodd" d="M186.784 108.265C185.78 108.391 185.131 108.537 184.838 108.705C184.546 108.872 184.294 108.956 184.085 108.956C183.876 108.956 183.603 109.06 183.268 109.27C182.933 109.48 182.745 109.647 182.704 109.772C182.661 109.898 182.452 110.044 182.075 110.211C181.699 110.379 181.405 110.589 181.196 110.84C180.987 111.091 180.82 111.216 180.694 111.216C180.568 111.216 180.484 111.301 180.443 111.468C180.401 111.635 180.233 111.865 179.941 112.159C179.647 112.451 179.438 112.598 179.312 112.598C179.187 112.598 178.873 112.808 178.37 113.226C177.868 113.645 177.345 113.98 176.8 114.23C176.256 114.482 175.503 114.628 174.54 114.67C173.577 114.712 172.844 114.775 172.342 114.858C171.84 114.942 171.442 115.068 171.149 115.235C170.856 115.403 170.647 115.466 170.521 115.424C170.396 115.382 170.061 115.591 169.516 116.051C168.972 116.512 168.7 116.805 168.7 116.931C168.7 117.056 168.596 117.162 168.386 117.244C168.177 117.329 167.884 117.705 167.507 118.375C167.131 119.044 166.921 119.588 166.88 120.008C166.837 120.426 166.775 120.656 166.691 120.698C166.608 120.74 166.565 121.012 166.565 121.515C166.565 122.017 166.649 122.499 166.816 122.959C166.984 123.42 167.152 123.713 167.319 123.838C167.486 123.964 167.57 124.11 167.57 124.277C167.57 124.445 167.968 124.906 168.763 125.659C169.559 126.413 170.375 126.915 171.212 127.166C172.049 127.417 172.489 127.585 172.53 127.668C172.572 127.752 172.803 127.773 173.221 127.731C173.641 127.689 173.933 127.711 174.101 127.794C174.268 127.878 174.54 127.878 174.917 127.794C175.294 127.711 176.256 127.752 177.805 127.919C179.355 128.087 180.296 128.129 180.631 128.045C180.966 127.962 181.468 127.983 182.138 128.108C182.808 128.234 183.625 128.296 184.587 128.296C185.55 128.296 186.157 128.255 186.408 128.171C186.66 128.087 186.91 128.087 187.162 128.171C187.413 128.255 190.238 128.296 195.639 128.296C201.039 128.296 203.97 128.234 204.43 128.108C204.891 127.983 205.246 127.962 205.497 128.045C205.749 128.129 206.02 128.129 206.314 128.045C206.606 127.962 207.067 127.941 207.695 127.983C208.324 128.024 208.993 127.961 209.705 127.794C210.416 127.626 210.939 127.459 211.275 127.292C211.609 127.124 211.777 126.998 211.777 126.915C211.777 126.831 211.986 126.748 212.404 126.664C212.823 126.58 213.033 126.496 213.033 126.413C213.033 126.329 213.159 126.245 213.409 126.161C213.504 126.13 213.598 126.099 213.692 126.067C213.723 126.057 213.755 126.047 213.786 126.036C213.776 126.016 213.766 125.996 213.756 125.976C213.745 125.955 213.734 125.932 213.723 125.91C213.682 125.827 213.849 125.596 214.226 125.22C214.603 124.842 214.665 124.152 214.414 123.148C214.164 122.143 213.954 121.619 213.786 121.577C213.619 121.536 213.514 121.389 213.472 121.138C213.431 120.886 213.2 120.552 212.781 120.133C212.363 119.715 211.589 119.296 210.458 118.877C209.328 118.459 208.176 118.207 207.004 118.124C205.832 118.04 204.974 117.914 204.43 117.747C203.886 117.58 203.237 117.244 202.484 116.742C201.73 116.239 201.143 115.779 200.725 115.361C200.306 114.942 200.076 114.628 200.034 114.419C199.992 114.209 199.762 113.958 199.343 113.666C198.925 113.372 198.674 113.121 198.59 112.912C198.506 112.703 198.297 112.514 197.962 112.347C197.627 112.179 197.251 111.865 196.832 111.405C196.414 110.944 196.036 110.672 195.701 110.589C195.367 110.505 195.032 110.296 194.697 109.961C194.362 109.626 193.797 109.291 193.001 108.956C192.206 108.621 191.223 108.391 190.05 108.265C188.878 108.14 187.789 108.14 186.784 108.265ZM191.934 110.023C191.683 109.814 191.243 109.668 190.615 109.584C190.517 109.571 190.337 109.535 190.118 109.491C189.641 109.396 188.976 109.264 188.551 109.245C187.932 109.217 186.596 109.396 186.471 109.521C186.345 109.647 185.801 109.876 184.838 110.211C183.876 110.547 182.996 111.112 182.201 111.907C181.405 112.703 180.736 113.288 180.192 113.666C179.647 114.042 179.355 114.293 179.312 114.419C179.271 114.545 179.145 114.587 178.936 114.545L178.622 114.482V114.733C178.622 114.9 178.391 115.13 177.931 115.424C177.47 115.717 177.072 115.926 176.738 116.051C176.403 116.177 175.755 116.219 174.791 116.177C173.829 116.135 173.326 116.157 173.284 116.239C173.243 116.324 173.075 116.365 172.782 116.365C172.489 116.365 172.133 116.449 171.714 116.617C171.296 116.784 170.94 116.994 170.647 117.244C170.354 117.496 170.145 117.622 170.019 117.622C169.893 117.622 169.537 118.061 168.952 118.94C168.43 119.722 168.343 120.15 168.241 120.648C168.228 120.709 168.215 120.772 168.202 120.837C168.076 121.423 168.139 122.01 168.39 122.595C168.641 123.181 169.081 123.768 169.708 124.353C170.337 124.94 170.944 125.358 171.53 125.61C172.116 125.86 172.932 126.049 173.979 126.174C175.026 126.3 175.904 126.363 176.617 126.363C177.092 126.363 177.276 126.479 177.358 126.531C177.399 126.556 177.415 126.566 177.429 126.538C177.47 126.455 178.182 126.413 179.563 126.413C180.945 126.413 181.678 126.455 181.761 126.538C181.845 126.621 181.971 126.621 182.138 126.538C182.306 126.455 182.62 126.476 183.08 126.601C183.541 126.726 183.833 126.748 183.959 126.664C184.085 126.58 184.42 126.538 184.964 126.538C185.508 126.538 185.822 126.58 185.906 126.664C185.947 126.706 185.989 126.748 186.032 126.789C186.01 126.748 185.989 126.706 185.969 126.664C185.947 126.622 185.927 126.58 185.906 126.54V126.538C185.989 126.517 186.073 126.496 186.157 126.476C186.324 126.433 186.596 126.455 186.973 126.538C187.35 126.621 188.857 126.664 191.495 126.664C194.132 126.664 195.744 126.621 196.329 126.538C196.916 126.455 197.878 126.455 199.218 126.538C200.558 126.621 201.813 126.601 202.986 126.476C204.158 126.349 205.435 126.287 206.816 126.287C208.197 126.287 209.285 126.161 210.082 125.91C210.876 125.659 211.337 125.555 211.463 125.596C211.589 125.638 211.693 125.596 211.777 125.471C211.86 125.345 212.049 125.261 212.342 125.22C212.635 125.178 212.781 125.114 212.781 125.032C212.781 124.948 212.907 124.842 213.159 124.717C213.409 124.591 213.535 124.362 213.535 124.027C213.535 123.692 213.409 123.294 213.159 122.833C212.907 122.373 212.53 121.891 212.028 121.389C211.525 120.886 210.897 120.51 210.144 120.259C209.39 120.008 208.302 119.819 206.878 119.694C205.456 119.568 204.639 119.421 204.43 119.254C204.22 119.086 204.053 119.044 203.927 119.128C203.802 119.212 203.529 119.171 203.111 119.004C202.693 118.836 202.212 118.563 201.667 118.187C201.123 117.81 200.6 117.308 200.098 116.68C199.595 116.051 199.155 115.591 198.779 115.298C198.402 115.005 198.15 114.733 198.025 114.482C197.899 114.23 197.523 113.854 196.894 113.352C196.267 112.849 195.953 112.535 195.953 112.41C195.953 112.284 195.765 112.138 195.387 111.971C195.011 111.803 194.697 111.572 194.446 111.279C194.194 110.986 193.776 110.756 193.19 110.589C192.604 110.421 192.185 110.233 191.934 110.023Z" fill="#FAF7F0"></path><path fill-rule="evenodd" clip-rule="evenodd" d="M204.618 139.034C204.702 139.578 204.869 140.102 205.121 140.604C205.372 141.107 205.497 141.504 205.497 141.797C205.497 142.09 205.601 142.467 205.811 142.927C206.02 143.388 206.104 143.723 206.062 143.932C206.02 144.141 206.083 144.413 206.25 144.748C206.418 145.083 206.69 146.444 207.067 148.83C207.443 151.216 207.59 153.309 207.506 155.109C207.423 156.909 207.339 157.83 207.255 157.872C207.171 157.914 207.13 158.102 207.13 158.437C207.13 158.772 207.087 158.961 207.004 159.002C206.92 159.044 206.773 159.505 206.565 160.384C206.355 161.263 206.188 161.745 206.062 161.828C205.936 161.912 205.769 162.184 205.56 162.644C205.35 163.105 205.203 163.335 205.121 163.335C205.036 163.335 204.974 163.188 204.931 162.896C204.89 162.602 204.807 162.435 204.68 162.394C204.555 162.351 204.513 162.247 204.555 162.079C204.597 161.912 204.451 161.661 204.116 161.326C203.781 160.991 203.592 160.676 203.55 160.384C203.508 160.091 203.361 159.903 203.111 159.819C202.859 159.735 202.504 159.442 202.044 158.94C201.583 158.437 201.269 158.186 201.102 158.186C200.935 158.186 200.641 158.061 200.222 157.809C199.804 157.558 199.301 157.391 198.715 157.307C198.423 157.265 198.13 157.224 197.838 157.182L197.836 157.181V157.307V157.432H197.145C196.685 157.432 196.413 157.495 196.328 157.621C196.246 157.747 196.099 157.83 195.889 157.872C195.68 157.914 195.513 158.061 195.387 158.312C195.262 158.563 195.115 158.71 194.947 158.751C194.78 158.793 194.654 158.877 194.571 159.002C194.487 159.128 194.194 159.923 194.194 160.133C194.194 160.342 194.131 160.509 194.006 160.636C193.88 160.76 193.775 161.117 193.692 161.703C193.608 162.288 193.629 162.708 193.754 162.958C193.88 163.21 193.943 163.523 193.943 163.901C193.943 164.277 194.047 164.612 194.257 164.905C194.313 164.984 194.394 165.107 194.484 165.244C194.728 165.617 195.044 166.098 195.135 166.098C195.262 166.098 195.366 166.244 195.45 166.538C195.534 166.831 195.722 166.998 196.015 167.04C196.308 167.082 196.518 167.187 196.643 167.354C196.769 167.521 196.915 167.605 197.083 167.605C197.25 167.605 197.375 167.689 197.459 167.856C197.543 168.024 198.129 168.17 199.217 168.296C200.306 168.422 200.892 168.422 200.975 168.296C201.059 168.17 201.352 168.087 201.855 168.045C202.357 168.003 202.671 167.898 202.797 167.731C202.922 167.564 203.069 167.479 203.237 167.479H203.487V168.547C203.487 169.259 203.425 169.656 203.299 169.74C203.173 169.823 203.069 170.159 202.985 170.745C202.901 171.331 202.504 172.335 201.792 173.759C201.08 175.182 200.515 176.104 200.097 176.522C199.678 176.941 199.406 177.297 199.281 177.589C199.155 177.882 198.945 178.134 198.652 178.342C198.36 178.552 198.17 178.762 198.088 178.971C198.003 179.18 197.668 179.515 197.083 179.976C196.496 180.436 196.056 180.854 195.764 181.231C195.471 181.608 195.199 181.838 194.947 181.922C194.696 182.006 194.55 182.11 194.508 182.236C194.466 182.362 194.174 182.634 193.629 183.052C193.085 183.471 192.729 183.68 192.562 183.68C192.394 183.68 192.289 183.743 192.248 183.869C192.206 183.994 192.038 184.141 191.745 184.308C191.452 184.476 191.263 184.538 191.18 184.497C191.096 184.454 190.949 184.538 190.741 184.748C190.531 184.957 190.385 185.041 190.3 184.999C190.284 184.991 190.268 184.982 190.251 184.974C190.226 184.961 190.2 184.948 190.175 184.936V185.062C190.175 185.146 190.008 185.251 189.673 185.375C189.338 185.501 188.983 185.731 188.606 186.066C188.229 186.401 187.935 186.568 187.726 186.568C187.517 186.568 187.349 186.653 187.224 186.82C187.098 186.988 186.952 187.071 186.784 187.071C186.616 187.071 186.449 187.134 186.282 187.26C186.114 187.385 186.052 187.511 186.094 187.636C186.136 187.762 186.303 187.846 186.596 187.887C186.889 187.93 187.161 187.93 187.413 187.887C187.663 187.846 187.789 187.783 187.789 187.699C187.789 187.672 187.789 187.644 187.789 187.615C187.789 187.601 187.789 187.587 187.789 187.573C187.852 187.595 187.914 187.615 187.978 187.636C188.103 187.678 188.25 187.615 188.417 187.448C188.584 187.281 188.878 187.197 189.296 187.197C189.715 187.197 190.133 187.05 190.552 186.757C190.97 186.464 191.243 186.339 191.368 186.38C191.494 186.422 191.599 186.38 191.682 186.255C191.766 186.129 191.912 186.066 192.122 186.066C192.332 186.066 192.456 186.004 192.499 185.878C192.54 185.753 192.729 185.669 193.064 185.627C193.399 185.585 193.587 185.501 193.629 185.375C193.671 185.251 193.754 185.187 193.88 185.187H194.069V184.999V184.811L194.073 184.813C194.113 184.833 194.153 184.853 194.194 184.873C194.22 184.886 194.245 184.899 194.27 184.911C194.286 184.92 194.303 184.928 194.319 184.936V184.811V184.685H194.571C194.739 184.685 194.927 184.58 195.135 184.371C195.345 184.162 195.555 184.036 195.764 183.994C195.973 183.952 196.161 183.806 196.328 183.555C196.496 183.304 196.643 183.178 196.769 183.178H196.957V182.989V182.801H197.208C197.375 182.801 197.522 182.676 197.647 182.424C197.71 182.299 197.774 182.173 197.836 182.047C197.848 182.054 197.861 182.06 197.874 182.067C197.903 182.081 197.933 182.096 197.962 182.11C198.046 182.152 198.296 181.985 198.715 181.608C199.134 181.231 199.532 180.771 199.908 180.227C200.285 179.683 200.557 179.368 200.725 179.285C200.892 179.201 200.997 179.075 201.039 178.908C201.08 178.74 201.164 178.636 201.29 178.594C201.306 178.589 201.321 178.584 201.337 178.578C201.384 178.563 201.431 178.547 201.478 178.531C201.457 178.468 201.436 178.406 201.415 178.342C201.41 178.327 201.405 178.311 201.399 178.295C201.384 178.248 201.368 178.202 201.352 178.154C201.395 178.175 201.436 178.196 201.478 178.218C201.562 178.259 201.687 178.134 201.855 177.841C202.022 177.548 202.168 177.38 202.295 177.338C202.42 177.297 202.859 176.543 203.614 175.077C204.367 173.613 204.89 172.294 205.183 171.121C205.476 169.949 205.623 168.736 205.623 167.479C205.623 166.224 205.748 165.491 205.999 165.282C206.25 165.073 206.669 164.486 207.255 163.523C207.841 162.561 208.197 161.765 208.323 161.137C208.448 160.509 208.615 159.965 208.825 159.505C209.034 159.044 209.16 158.416 209.201 157.621C209.244 156.826 209.307 156.386 209.39 156.302C209.474 156.219 209.516 155.716 209.516 154.796C209.516 153.875 209.474 153.351 209.39 153.225C209.307 153.1 209.265 152.786 209.265 152.284C209.265 151.781 209.201 151.467 209.077 151.342C208.951 151.216 208.909 150.944 208.951 150.525C208.993 150.107 208.929 149.709 208.762 149.332C208.595 148.956 208.532 148.684 208.574 148.516C208.615 148.348 208.49 147.72 208.197 146.632C207.904 145.544 207.632 144.769 207.381 144.309C207.13 143.848 206.963 143.409 206.878 142.99C206.795 142.572 206.669 142.257 206.502 142.048C206.334 141.839 206.271 141.671 206.313 141.546C206.355 141.42 206.313 141.316 206.188 141.232C206.062 141.148 205.895 140.813 205.685 140.227C205.476 139.641 205.309 139.348 205.183 139.348H204.995V139.034C204.995 138.824 204.911 138.636 204.743 138.469L204.492 138.218C204.534 138.49 204.576 138.762 204.618 139.034ZM201.164 160.258C200.871 159.798 200.327 159.421 199.532 159.128C198.736 158.835 198.108 158.772 197.647 158.94C197.187 159.107 196.748 159.484 196.328 160.07C195.911 160.656 195.68 161.221 195.638 161.765C195.596 162.31 195.638 162.875 195.764 163.46C195.889 164.047 195.994 164.34 196.078 164.34H196.204V164.654C196.204 164.863 196.266 164.989 196.392 165.03C196.518 165.073 196.581 165.156 196.581 165.282C196.581 165.407 196.873 165.679 197.459 166.098C198.046 166.516 198.506 166.747 198.84 166.788C198.869 166.792 198.916 166.801 198.977 166.812C199.297 166.868 200.015 166.995 200.597 166.889C201.012 166.814 201.339 166.584 201.56 166.429C201.66 166.36 201.738 166.305 201.792 166.286C202.168 166.161 202.546 165.951 202.922 165.659C203.299 165.365 203.425 165.073 203.299 164.78C203.173 164.486 203.153 164.256 203.237 164.089C203.32 163.921 203.278 163.775 203.111 163.649C202.943 163.523 202.901 163.398 202.985 163.272C203.027 163.21 203.069 163.147 203.111 163.084C203.055 163.057 203 163.028 202.944 163C202.916 162.986 202.888 162.972 202.859 162.958C202.692 162.875 202.546 162.582 202.42 162.079C202.295 161.577 202.168 161.305 202.044 161.263L201.855 161.201C201.869 161.172 201.883 161.144 201.896 161.116C201.903 161.103 201.911 161.089 201.918 161.075C201.939 161.034 201.959 160.991 201.98 160.949V160.948H201.792C201.666 160.948 201.457 160.719 201.164 160.258Z" fill="#FAF7F0"></path></g></g><defs><filter id="filter0_f_2067_784" x="59.1958" y="57.6338" width="132.047" height="178.753" color-interpolation-filters="sRGB"><feFlood flood-opacity="0" result="BackgroundImageFix"></feFlood><feBlend mode="normal" in="SourceGraphic" in2="BackgroundImageFix" result="shape"></feBlend><feGaussianBlur stdDeviation="18" result="effect1_foregroundBlur_2067_784"></feGaussianBlur></filter><filter id="filter1_f_2067_784" x="132.874" y="-23.4121" width="132.047" height="178.753" color-interpolation-filters="sRGB"><feFlood flood-opacity="0" result="BackgroundImageFix"></feFlood><feBlend mode="normal" in="SourceGraphic" in2="BackgroundImageFix" result="shape"></feBlend><feGaussianBlur stdDeviation="18" result="effect1_foregroundBlur_2067_784"></feGaussianBlur></filter><filter id="filter2_f_2067_784" x="54.6499" y="-19.6006" width="134.475" height="134.74" color-interpolation-filters="sRGB"><feFlood flood-opacity="0" result="BackgroundImageFix"></feFlood><feBlend mode="normal" in="SourceGraphic" in2="BackgroundImageFix" result="shape"></feBlend><feGaussianBlur stdDeviation="10.5" result="effect1_foregroundBlur_2067_784"></feGaussianBlur></filter><filter id="filter3_f_2067_784" x="62.7129" y="21.2764" width="170.339" height="116.27" color-interpolation-filters="sRGB"><feFlood flood-opacity="0" result="BackgroundImageFix"></feFlood><feBlend mode="normal" in="SourceGraphic" in2="BackgroundImageFix" result="shape"></feBlend><feGaussianBlur stdDeviation="15.5" result="effect1_foregroundBlur_2067_784"></feGaussianBlur></filter><filter id="filter4_f_2067_784" x="59.2134" y="32.9502" width="91.2024" height="158.506" color-interpolation-filters="sRGB"><feFlood flood-opacity="0" result="BackgroundImageFix"></feFlood><feBlend mode="normal" in="SourceGraphic" in2="BackgroundImageFix" result="shape"></feBlend><feGaussianBlur stdDeviation="15" result="effect1_foregroundBlur_2067_784"></feGaussianBlur></filter><radialGradient id="paint0_radial_2067_784" cx="0" cy="0" r="1" gradientUnits="userSpaceOnUse" gradientTransform="translate(50.415 82.0204) rotate(-16.4339) scale(102.996 76.5786)"><stop stop-color="#FFF1A6"></stop><stop offset="0.323513" stop-color="white"></stop><stop offset="0.504489" stop-color="#FACED2"></stop><stop offset="0.82687" stop-color="#A8E5FF"></stop><stop offset="1" stop-color="#DCDDED"></stop></radialGradient><radialGradient id="paint1_radial_2067_784" cx="0" cy="0" r="1" gradientUnits="userSpaceOnUse" gradientTransform="translate(147.883 79.4112) rotate(68.8005) scale(19.4438 57.3722)"><stop stop-color="#FFF6C4"></stop><stop offset="1" stop-color="#FFB1B1"></stop></radialGradient></defs></svg> 