<?xml version="1.0" encoding="UTF-8"?> <svg xmlns="http://www.w3.org/2000/svg" width="24" height="24" viewBox="0 0 24 24" fill="none"><path d="M15.5006 11.9999C15.5006 10.0669 13.933 8.49987 12.0003 8.49987C10.0676 8.49987 8.50056 10.0663 8.5 11.9999C8.5 13.9329 10.067 15.4999 12.0003 15.4999C13.9335 15.4999 15.5006 13.9329 15.5006 11.9999Z" fill="white"></path><path fill-rule="evenodd" clip-rule="evenodd" d="M7.67098 1.56335C8.79067 1.51257 9.14864 1.49988 12.0003 1.49988H11.9981C14.8508 1.49988 15.2071 1.51257 16.3274 1.56335C17.4448 1.61469 18.2082 1.79187 18.8778 2.05129C19.5689 2.31954 20.1531 2.67832 20.7372 3.2623C21.3213 3.84627 21.6798 4.4319 21.949 5.12241C22.2071 5.79028 22.3842 6.5531 22.4366 7.67082C22.4868 8.79076 22.5 9.14898 22.5 12.0004C22.5 14.8519 22.4868 15.209 22.4366 16.3289C22.3842 17.4461 22.2071 18.2095 21.949 18.8773C21.6798 19.5673 21.3213 20.1535 20.7372 20.7369C20.1536 21.3209 19.5689 21.6802 18.8784 21.9485C18.2104 22.2084 17.4465 22.3851 16.3285 22.4364C15.2082 22.4872 14.8513 22.4999 11.9997 22.4999C9.14809 22.4999 8.79067 22.4872 7.67042 22.4364C6.55294 22.3851 5.78956 22.2079 5.12161 21.9485C4.43159 21.6802 3.84582 21.3203 3.26227 20.7364C2.67816 20.1524 2.31964 19.5667 2.05102 18.8762C1.79178 18.2084 1.61473 17.4455 1.56343 16.3278C1.51269 15.2079 1.5 14.8508 1.5 11.9993C1.5 9.14788 1.51324 8.78965 1.56343 7.66972C1.61362 6.55255 1.79068 5.78918 2.05102 5.1213C2.32019 4.43135 2.67871 3.84517 3.26283 3.26175C3.84637 2.67832 4.43214 2.31954 5.12271 2.05129C5.79011 1.79131 6.55294 1.61469 7.67098 1.56335ZM16.3456 6.39524C16.3456 5.69921 16.9098 5.13566 17.6054 5.13566C18.3009 5.13511 18.8652 5.69921 18.8652 6.39524C18.8652 7.09126 18.3009 7.65537 17.6054 7.65537C16.9098 7.65537 16.3456 7.09071 16.3456 6.39524ZM6.60811 11.9999C6.60811 9.02203 9.02234 6.60774 12.0003 6.60774C14.9782 6.60774 17.3914 9.02203 17.3914 11.9999C17.3914 14.9777 14.9782 17.3909 12.0003 17.3909C9.02234 17.3909 6.60811 14.9777 6.60811 11.9999Z" fill="white"></path></svg> 